<svg width="815px" height="581px" viewBox="0 0 815 581" version="1.1" xmlns="http://www.w3.org/2000/svg">
    <g fill="#FF307A">
        <path d="M38.828125,76.1953125 C17.8413045,76.1953125 0.828125,59.182133 0.828125,38.1953125 C0.828125,17.208492 17.8413045,0.1953125 38.828125,0.1953125 L206.828125,0.1953125 C227.814945,0.1953125 244.828125,17.208492 244.828125,38.1953125 C244.828125,59.182133 227.814945,76.1953125 206.828125,76.1953125 L38.828125,76.1953125 Z"></path>
        <path d="M344,581 L184,581 C163.01318,581 146,563.98682 146,543 C146,522.01318 163.01318,505 184,505 L344,505 C356.150264,505 366,495.150264 366,483 C366,470.849736 356.150264,461 344,461 C323.01318,461 306,443.98682 306,423 C306,402.01318 323.01318,385 344,385 C398.123905,385 442,428.876095 442,483 C442,537.123905 398.123905,581 344,581 Z"></path>
        <path d="M717,270.853967 C729.150264,270.853967 739,261.004232 739,248.853967 C739,236.703703 729.150264,226.853967 717,226.853967 L557,226.853967 C536.01318,226.853967 519,209.840788 519,188.853967 C519,167.867147 536.01318,150.853967 557,150.853967 L717,150.853967 C771.123905,150.853967 815,194.730062 815,248.853967 C815,295.582929 782.294412,334.673091 738.525151,344.482537 C736.418087,344.954767 733.032264,345.359138 730.876334,345.693238 C733.020655,346.926274 735.052949,349.591232 736.514697,351.540229 C752.266986,372.543282 775.895421,404.047861 807.4,446.053967 C819.992092,462.843424 816.589456,486.661875 799.8,499.253967 C783.010544,511.846059 759.192092,508.443424 746.6,491.653967 L626.830309,331.961046 C624.292269,328.652243 622.286288,324.913892 620.940255,320.873882 C619.638617,316.836937 619,312.92003 619,308.853967 C619,308.187942 619.017135,307.525919 619.050987,306.868315 C619.325511,301.674355 620.659879,296.554189 623.004332,291.856133 C625.356105,287.161737 628.651617,283.022143 632.64207,279.686148 C633.147842,279.264504 633.66718,278.853582 634.2,278.453967 C637.560553,275.933553 641.202711,274.053942 644.980085,272.794222 C649.271363,271.409362 653.339087,270.810172 657.383848,270.853967 L717,270.853967 Z"></path>
    </g>
</svg>