<?xml version="1.0" encoding="UTF-8"?>
<svg width="1280px" height="550px" viewBox="0 0 1280 550" version="1.1" xmlns="http://www.w3.org/2000/svg" xmlns:xlink="http://www.w3.org/1999/xlink">
    <defs>
        <path d="M256.175429,13.3263798 C255.281813,13.9756295 254.031074,13.7775318 253.381824,12.8839163 L246.328401,3.17571238 C245.679151,2.28209689 245.877249,1.03135755 246.770865,0.382107889 C247.66448,-0.267141773 248.915219,-0.0690441237 249.564469,0.824571373 L256.617892,10.5327753 C257.267142,11.4263908 257.069044,12.6771301 256.175429,13.3263798 Z" id="path-1"></path>
        <path d="M256.175429,13.3263798 C255.281813,13.9756295 254.031074,13.7775318 253.381824,12.8839163 L246.328401,3.17571238 C245.679151,2.28209689 245.877249,1.03135755 246.770865,0.382107889 C247.66448,-0.267141773 248.915219,-0.0690441237 249.564469,0.824571373 L256.617892,10.5327753 C257.267142,11.4263908 257.069044,12.6771301 256.175429,13.3263798 Z" id="path-3"></path>
        <path d="M11.1754286,13.3263798 C10.2818131,13.9756295 9.0310738,13.7775318 8.38182413,12.8839163 L1.32840111,3.17571238 C0.679151444,2.28209689 0.877249094,1.03135755 1.77086459,0.382107889 C2.66448009,-0.267141773 3.91521942,-0.0690441237 4.56446908,0.824571373 L11.6178921,10.5327753 C12.2671418,11.4263908 12.0690441,12.6771301 11.1754286,13.3263798 Z" id="path-5"></path>
        <path d="M11.1754286,13.3263798 C10.2818131,13.9756295 9.0310738,13.7775318 8.38182413,12.8839163 L1.32840111,3.17571238 C0.679151444,2.28209689 0.877249094,1.03135755 1.77086459,0.382107889 C2.66448009,-0.267141773 3.91521942,-0.0690441237 4.56446908,0.824571373 L11.6178921,10.5327753 C12.2671418,11.4263908 12.0690441,12.6771301 11.1754286,13.3263798 Z" id="path-7"></path>
        <path d="M11.1754286,13.3263798 C10.2818131,13.9756295 9.0310738,13.7775318 8.38182413,12.8839163 L1.32840111,3.17571238 C0.679151444,2.28209689 0.877249094,1.03135755 1.77086459,0.382107889 C2.66448009,-0.267141773 3.91521942,-0.0690441237 4.56446908,0.824571373 L11.6178921,10.5327753 C12.2671418,11.4263908 12.0690441,12.6771301 11.1754286,13.3263798 Z" id="path-9"></path>
        <path d="M11.1754286,13.3263798 C10.2818131,13.9756295 9.0310738,13.7775318 8.38182413,12.8839163 L1.32840111,3.17571238 C0.679151444,2.28209689 0.877249094,1.03135755 1.77086459,0.382107889 C2.66448009,-0.267141773 3.91521942,-0.0690441237 4.56446908,0.824571373 L11.6178921,10.5327753 C12.2671418,11.4263908 12.0690441,12.6771301 11.1754286,13.3263798 Z" id="path-11"></path>
        <path d="M256.175429,13.3263798 C255.281813,13.9756295 254.031074,13.7775318 253.381824,12.8839163 L246.328401,3.17571238 C245.679151,2.28209689 245.877249,1.03135755 246.770865,0.382107889 C247.66448,-0.267141773 248.915219,-0.0690441237 249.564469,0.824571373 L256.617892,10.5327753 C257.267142,11.4263908 257.069044,12.6771301 256.175429,13.3263798 Z" id="path-13"></path>
        <path d="M256.175429,13.3263798 C255.281813,13.9756295 254.031074,13.7775318 253.381824,12.8839163 L246.328401,3.17571238 C245.679151,2.28209689 245.877249,1.03135755 246.770865,0.382107889 C247.66448,-0.267141773 248.915219,-0.0690441237 249.564469,0.824571373 L256.617892,10.5327753 C257.267142,11.4263908 257.069044,12.6771301 256.175429,13.3263798 Z" id="path-15"></path>
        <path d="M11.1754286,13.3263798 C10.2818131,13.9756295 9.0310738,13.7775318 8.38182413,12.8839163 L1.32840111,3.17571238 C0.679151444,2.28209689 0.877249094,1.03135755 1.77086459,0.382107889 C2.66448009,-0.267141773 3.91521942,-0.0690441237 4.56446908,0.824571373 L11.6178921,10.5327753 C12.2671418,11.4263908 12.0690441,12.6771301 11.1754286,13.3263798 Z" id="path-17"></path>
        <path d="M11.1754286,13.3263798 C10.2818131,13.9756295 9.0310738,13.7775318 8.38182413,12.8839163 L1.32840111,3.17571238 C0.679151444,2.28209689 0.877249094,1.03135755 1.77086459,0.382107889 C2.66448009,-0.267141773 3.91521942,-0.0690441237 4.56446908,0.824571373 L11.6178921,10.5327753 C12.2671418,11.4263908 12.0690441,12.6771301 11.1754286,13.3263798 Z" id="path-19"></path>
        <path d="M11.1754286,13.3263798 C10.2818131,13.9756295 9.0310738,13.7775318 8.38182413,12.8839163 L1.32840111,3.17571238 C0.679151444,2.28209689 0.877249094,1.03135755 1.77086459,0.382107889 C2.66448009,-0.267141773 3.91521942,-0.0690441237 4.56446908,0.824571373 L11.6178921,10.5327753 C12.2671418,11.4263908 12.0690441,12.6771301 11.1754286,13.3263798 Z" id="path-21"></path>
        <path d="M11.1754286,13.3263798 C10.2818131,13.9756295 9.0310738,13.7775318 8.38182413,12.8839163 L1.32840111,3.17571238 C0.679151444,2.28209689 0.877249094,1.03135755 1.77086459,0.382107889 C2.66448009,-0.267141773 3.91521942,-0.0690441237 4.56446908,0.824571373 L11.6178921,10.5327753 C12.2671418,11.4263908 12.0690441,12.6771301 11.1754286,13.3263798 Z" id="path-23"></path>
    </defs>
    <g id="Page-1" stroke="none" stroke-width="1" fill="none" fill-rule="evenodd">
        <g id="Desktop-HD-Copy-46" transform="translate(-80.000000, -1382.000000)">
            <g id="Group-2" transform="translate(80.000000, 1382.000000)">
                <g id="Group-3" transform="translate(116.000000, 116.000000)" stroke="#FF307A" stroke-linecap="round" stroke-linejoin="round" stroke-width="4">
                    <polyline id="Path-2" points="0 50 0 12 52 12 52 30"></polyline>
                    <polyline id="Path-2" transform="translate(26.000000, 57.254999) scale(-1, -1) translate(-26.000000, -57.254999) " points="0 76.5099983 0 38 52 38 52 56.5099983"></polyline>
                    <path d="M22,21 L44,21" id="Line-2"></path>
                    <path d="M10,39 L34,39" id="Line-2"></path>
                    <path d="M10,57 L34,57" id="Line-2"></path>
                    <path d="M10,33 L24,33" id="Line-2"></path>
                    <path d="M30,33 L44,33" id="Line-2-Copy"></path>
                    <path d="M10,45 L16,45" id="Line-2"></path>
                    <path d="M10,21 L16,21" id="Line-2-Copy-2"></path>
                    <path d="M22,45 L44,45" id="Line-2-Copy"></path>
                    <path d="M10,51 L40,51" id="Line-2"></path>
                    <path d="M10,27 L40,27" id="Line-2"></path>
                    <polyline id="Rectangle-12" points="6 6 58 6 58 70"></polyline>
                    <polyline id="Rectangle-12" points="12 0 64 0 64 64"></polyline>
                </g>
                <g id="Group-3" transform="translate(116.000000, 256.000000)" stroke="#FF307A" stroke-linecap="round" stroke-linejoin="round" stroke-width="4">
                    <polyline id="Path-2" points="0 50 0 12 52 12 52 30"></polyline>
                    <polyline id="Path-2" transform="translate(26.000000, 57.254999) scale(-1, -1) translate(-26.000000, -57.254999) " points="0 76.5099983 0 38 52 38 52 56.5099983"></polyline>
                    <path d="M22,21 L44,21" id="Line-2"></path>
                    <path d="M10,39 L34,39" id="Line-2"></path>
                    <path d="M10,57 L34,57" id="Line-2"></path>
                    <path d="M10,33 L24,33" id="Line-2"></path>
                    <path d="M30,33 L44,33" id="Line-2-Copy"></path>
                    <path d="M10,45 L16,45" id="Line-2"></path>
                    <path d="M10,21 L16,21" id="Line-2-Copy-2"></path>
                    <path d="M22,45 L44,45" id="Line-2-Copy"></path>
                    <path d="M10,51 L40,51" id="Line-2"></path>
                    <path d="M10,27 L40,27" id="Line-2"></path>
                    <polyline id="Rectangle-12" points="6 6 58 6 58 70"></polyline>
                    <polyline id="Rectangle-12" points="12 0 64 0 64 64"></polyline>
                </g>
                <g id="Group-3" transform="translate(116.000000, 396.000000)" stroke="#FF307A" stroke-linecap="round" stroke-linejoin="round" stroke-width="4">
                    <polyline id="Path-2" points="0 50 0 12 52 12 52 30"></polyline>
                    <polyline id="Path-2" transform="translate(26.000000, 57.254999) scale(-1, -1) translate(-26.000000, -57.254999) " points="0 76.5099983 0 38 52 38 52 56.5099983"></polyline>
                    <path d="M22,21 L44,21" id="Line-2"></path>
                    <path d="M10,39 L34,39" id="Line-2"></path>
                    <path d="M10,57 L34,57" id="Line-2"></path>
                    <path d="M10,33 L24,33" id="Line-2"></path>
                    <path d="M30,33 L44,33" id="Line-2-Copy"></path>
                    <path d="M10,45 L16,45" id="Line-2"></path>
                    <path d="M10,21 L16,21" id="Line-2-Copy-2"></path>
                    <path d="M22,45 L44,45" id="Line-2-Copy"></path>
                    <path d="M10,51 L40,51" id="Line-2"></path>
                    <path d="M10,27 L40,27" id="Line-2"></path>
                    <polyline id="Rectangle-12" points="6 6 58 6 58 70"></polyline>
                    <polyline id="Rectangle-12" points="12 0 64 0 64 64"></polyline>
                </g>
                <g id="Group-15" transform="translate(525.000000, 113.000000)">
                    <rect id="Rectangle-19" stroke="#FF307A" stroke-width="4" fill="#FFFFFF" stroke-linecap="round" stroke-linejoin="round" x="0" y="125" width="230" height="144" rx="5"></rect>
                    <g id="Group-7" transform="translate(40.500000, 0.000000)" stroke="#FF307A" stroke-width="4">
                        <path d="M124.5,125 L124.5,74 C124.5,46.3857625 102.114237,24 74.5,24 C46.8857625,24 24.5,46.3857625 24.5,74 L24.5,125 L0.5,125 L0.5,74 C0.5,33.1309285 33.6309285,7.50752664e-15 74.5,0 C115.369071,-7.50752664e-15 148.5,33.1309285 148.5,74 L148.5,125 L124.5,125 Z" id="Rectangle-21" fill="#FFFFFF" stroke-linecap="square"></path>
                        <path d="M8.5,109 C8.5,100.942708 8.5,89.2760417 8.5,74 C8.5,37.5492065 38.0492065,8 74.5,8 C81.6655368,8 88.5643677,9.14190324 95.0244456,11.2536625" id="Rectangle-21" stroke-linecap="round" stroke-linejoin="round"></path>
                    </g>
                    <path d="M8,168 L8,242" id="Path-3" stroke="#FF307A" stroke-width="4" stroke-linecap="round" stroke-linejoin="round"></path>
                    <path d="M222,147 L222,168" id="Path-3-Copy" stroke="#FF307A" stroke-width="4" stroke-linecap="round" stroke-linejoin="round"></path>
                    <circle id="Oval-7" fill="#FF307A" cx="8" cy="250" r="2"></circle>
                    <circle id="Oval-7-Copy" fill="#FF307A" cx="222" cy="139" r="2"></circle>
                    <path d="M152.403614,210.117723 L152.403614,193.882389 C152.403614,191.854246 154.047749,190.210111 156.075892,190.210111 C158.104035,190.210111 159.74817,191.854246 159.74817,193.882389 L159.74817,206.445445 L177.336448,206.445445 C179.364591,206.445445 181.008726,208.08958 181.008726,210.117723 C181.008726,212.145866 179.364591,213.790001 177.336448,213.790001 L156.075892,213.790001 C154.047749,213.790001 152.403614,212.145866 152.403614,210.117723 Z M68.1345005,190.596667 C69.3086886,190.596667 70.2605561,189.644799 70.2605561,188.470611 C70.2605561,187.296423 69.3086886,186.344556 68.1345005,186.344556 L52.6722779,186.344556 C50.6441348,186.344556 49,184.700421 49,182.672278 C49,180.644135 50.6441348,179 52.6722779,179 L68.1345005,179 C73.3649747,179 77.6051119,183.240137 77.6051119,188.470611 C77.6051119,192.986446 74.4444801,196.764076 70.2146672,197.71205 C70.0110429,197.757686 69.6838407,197.796764 69.475494,197.829051 C69.6827189,197.94821 69.8791175,198.205749 70.0203792,198.394098 C71.542663,200.42381 73.8260887,203.468377 76.8706563,207.527801 C78.0875421,209.150315 77.7587152,211.452104 76.1362007,212.66899 C74.5136863,213.885876 72.2118975,213.557049 70.9950117,211.934534 L59.4206015,196.501987 C59.1753282,196.182228 58.9814723,195.820958 58.8513932,195.430536 C58.7256044,195.04041 58.6638891,194.661885 58.6638891,194.268945 C58.6638891,194.204581 58.665545,194.140604 58.6688165,194.077054 C58.6953461,193.575115 58.824298,193.080308 59.0508633,192.626293 C59.2781361,192.172632 59.5966107,191.772586 59.9822437,191.450199 C60.0311209,191.409452 60.0813092,191.369741 60.1328003,191.331123 C60.4575604,191.087552 60.8095345,190.905909 61.1745757,190.784171 C61.5892801,190.65034 61.9823804,190.592435 62.3732617,190.596667 L68.1345005,190.596667 Z M128.630447,206.05889 C130.872078,206.05889 132.68928,204.241688 132.68928,202.000056 C132.68928,199.758424 130.872078,197.941223 128.630447,197.941223 C126.602303,197.941223 124.958169,196.297088 124.958169,194.268945 C124.958169,192.240802 126.602303,190.596667 128.630447,190.596667 C134.928364,190.596667 140.033836,195.702138 140.033836,202.000056 C140.033836,208.297974 134.928364,213.403445 128.630447,213.403445 L113.168224,213.403445 C111.140081,213.403445 109.495946,211.759311 109.495946,209.731167 C109.495946,207.703024 111.140081,206.05889 113.168224,206.05889 L128.630447,206.05889 Z M118.966557,179 L134.42878,179 C136.456923,179 138.101058,180.644135 138.101058,182.672278 C138.101058,184.700421 136.456923,186.344556 134.42878,186.344556 L118.966557,186.344556 C117.792369,186.344556 116.840502,187.296423 116.840502,188.470611 C116.840502,189.644799 117.792369,190.596667 118.966557,190.596667 C120.9947,190.596667 122.638835,192.240802 122.638835,194.268945 C122.638835,196.297088 120.9947,197.941223 118.966557,197.941223 C113.736083,197.941223 109.495946,193.701086 109.495946,188.470611 C109.495946,183.240137 113.736083,179 118.966557,179 Z M49,193.495834 C49,191.467691 50.6441348,189.823556 52.6722779,189.823556 C54.7004209,189.823556 56.3445557,191.467691 56.3445557,193.495834 L56.3445557,209.731167 C56.3445557,211.759311 54.7004209,213.403445 52.6722779,213.403445 C50.6441348,213.403445 49,211.759311 49,209.731167 L49,193.495834 Z M90.1681678,182.672278 C90.1681678,180.644135 91.8123026,179 93.8404456,179 C95.8685887,179 97.5127235,180.644135 97.5127235,182.672278 L97.5127235,209.731167 C97.5127235,211.759311 95.8685887,213.403445 93.8404456,213.403445 C91.8123026,213.403445 90.1681678,211.759311 90.1681678,209.731167 L90.1681678,182.672278 Z M156.075892,186.731111 C154.047749,186.731111 152.403614,185.086977 152.403614,183.058833 C152.403614,181.03069 154.047749,179.386556 156.075892,179.386556 L177.336448,179.386556 C179.364591,179.386556 181.008726,181.03069 181.008726,183.058833 C181.008726,185.086977 179.364591,186.731111 177.336448,186.731111 L156.075892,186.731111 Z M165.739781,198.327778 C163.711638,198.327778 162.067503,196.683643 162.067503,194.6555 C162.067503,192.627357 163.711638,190.983223 165.739781,190.983223 L177.336448,190.983223 C179.364591,190.983223 181.008726,192.627357 181.008726,194.6555 C181.008726,196.683643 179.364591,198.327778 177.336448,198.327778 L165.739781,198.327778 Z" id="Mask" fill="#FF307A" fill-rule="nonzero"></path>
                </g>
                <g id="Group-13" transform="translate(1094.000000, 128.000000)">
                    <g id="Group-6">
                        <polyline id="Path-2" stroke="#FF307A" stroke-width="4" stroke-linecap="round" stroke-linejoin="round" points="50 56 0 56 0 0 42 0"></polyline>
                        <polyline id="Path-2" stroke="#FF307A" stroke-width="4" stroke-linecap="round" stroke-linejoin="round" points="50 0 72.5099983 0 72.5099983 56"></polyline>
                        <circle id="Oval-6" fill="#FF307A" cx="8" cy="8" r="2"></circle>
                        <circle id="Oval-6" fill="#FF307A" cx="14" cy="8" r="2"></circle>
                        <circle id="Oval-6" fill="#FF307A" cx="20" cy="8" r="2"></circle>
                    </g>
                    <g id="Icons-/-Navigation-/-Search-—-Default-Copy-6" transform="translate(21.000000, 12.000000)" fill="#FF307A">
                        <path d="M34.1706037,35.7583282 C34.1407722,35.7227295 34.1119621,35.6858516 34.084248,35.6477065 C33.4349984,34.754091 33.633096,33.5033516 34.5267115,32.854102 C37.207558,30.906353 37.801851,27.154135 35.854102,24.4732885 C33.906353,21.792442 30.154135,21.198149 27.4732885,23.145898 C24.792442,25.093647 24.198149,28.845865 26.145898,31.5267115 C27.0802959,32.8127999 28.4545633,33.6524379 29.990385,33.9144502 C31.0792231,34.1002067 31.8113153,35.1334697 31.6255588,36.2223078 C31.4398023,37.3111458 30.4065392,38.043238 29.3177012,37.8574815 C26.762476,37.4215584 24.4643545,36.0174718 22.9098301,33.8778525 C19.6635817,29.409775 20.65407,23.1560784 25.1221475,19.9098301 C29.590225,16.6635817 35.8439216,17.65407 39.0901699,22.1221475 C41.93282,26.0347197 41.5267313,31.3165086 38.3816465,34.749125 L44.4350484,43.0809179 C45.0842981,43.9745333 44.8862004,45.2252727 43.9925849,45.8745223 C43.0989694,46.523772 41.8482301,46.3256744 41.1989804,45.4320589 L34.1706037,35.7583282 Z" id="Combined-Shape"></path>
                    </g>
                </g>
                <g id="Group-13-Copy" transform="translate(1094.000000, 268.000000)">
                    <g id="Group-6">
                        <polyline id="Path-2" stroke="#FF307A" stroke-width="4" stroke-linecap="round" stroke-linejoin="round" points="50 56 0 56 0 0 42 0"></polyline>
                        <polyline id="Path-2" stroke="#FF307A" stroke-width="4" stroke-linecap="round" stroke-linejoin="round" points="50 0 72.5099983 0 72.5099983 56"></polyline>
                        <circle id="Oval-6" fill="#FF307A" cx="8" cy="8" r="2"></circle>
                        <circle id="Oval-6" fill="#FF307A" cx="14" cy="8" r="2"></circle>
                        <circle id="Oval-6" fill="#FF307A" cx="20" cy="8" r="2"></circle>
                    </g>
                    <g id="Icons-/-Navigation-/-Search-—-Default-Copy-6" transform="translate(21.000000, 12.000000)" fill="#FF307A">
                        <path d="M34.1706037,35.7583282 C34.1407722,35.7227295 34.1119621,35.6858516 34.084248,35.6477065 C33.4349984,34.754091 33.633096,33.5033516 34.5267115,32.854102 C37.207558,30.906353 37.801851,27.154135 35.854102,24.4732885 C33.906353,21.792442 30.154135,21.198149 27.4732885,23.145898 C24.792442,25.093647 24.198149,28.845865 26.145898,31.5267115 C27.0802959,32.8127999 28.4545633,33.6524379 29.990385,33.9144502 C31.0792231,34.1002067 31.8113153,35.1334697 31.6255588,36.2223078 C31.4398023,37.3111458 30.4065392,38.043238 29.3177012,37.8574815 C26.762476,37.4215584 24.4643545,36.0174718 22.9098301,33.8778525 C19.6635817,29.409775 20.65407,23.1560784 25.1221475,19.9098301 C29.590225,16.6635817 35.8439216,17.65407 39.0901699,22.1221475 C41.93282,26.0347197 41.5267313,31.3165086 38.3816465,34.749125 L44.4350484,43.0809179 C45.0842981,43.9745333 44.8862004,45.2252727 43.9925849,45.8745223 C43.0989694,46.523772 41.8482301,46.3256744 41.1989804,45.4320589 L34.1706037,35.7583282 Z" id="Combined-Shape"></path>
                    </g>
                </g>
                <g id="Group-13-Copy-2" transform="translate(1094.000000, 408.000000)">
                    <g id="Group-6">
                        <polyline id="Path-2" stroke="#FF307A" stroke-width="4" stroke-linecap="round" stroke-linejoin="round" points="50 56 0 56 0 0 42 0"></polyline>
                        <polyline id="Path-2" stroke="#FF307A" stroke-width="4" stroke-linecap="round" stroke-linejoin="round" points="50 0 72.5099983 0 72.5099983 56"></polyline>
                        <circle id="Oval-6" fill="#FF307A" cx="8" cy="8" r="2"></circle>
                        <circle id="Oval-6" fill="#FF307A" cx="14" cy="8" r="2"></circle>
                        <circle id="Oval-6" fill="#FF307A" cx="20" cy="8" r="2"></circle>
                    </g>
                    <g id="Icons-/-Navigation-/-Search-—-Default-Copy-6" transform="translate(21.000000, 12.000000)" fill="#FF307A">
                        <path d="M34.1706037,35.7583282 C34.1407722,35.7227295 34.1119621,35.6858516 34.084248,35.6477065 C33.4349984,34.754091 33.633096,33.5033516 34.5267115,32.854102 C37.207558,30.906353 37.801851,27.154135 35.854102,24.4732885 C33.906353,21.792442 30.154135,21.198149 27.4732885,23.145898 C24.792442,25.093647 24.198149,28.845865 26.145898,31.5267115 C27.0802959,32.8127999 28.4545633,33.6524379 29.990385,33.9144502 C31.0792231,34.1002067 31.8113153,35.1334697 31.6255588,36.2223078 C31.4398023,37.3111458 30.4065392,38.043238 29.3177012,37.8574815 C26.762476,37.4215584 24.4643545,36.0174718 22.9098301,33.8778525 C19.6635817,29.409775 20.65407,23.1560784 25.1221475,19.9098301 C29.590225,16.6635817 35.8439216,17.65407 39.0901699,22.1221475 C41.93282,26.0347197 41.5267313,31.3165086 38.3816465,34.749125 L44.4350484,43.0809179 C45.0842981,43.9745333 44.8862004,45.2252727 43.9925849,45.8745223 C43.0989694,46.523772 41.8482301,46.3256744 41.1989804,45.4320589 L34.1706037,35.7583282 Z" id="Combined-Shape"></path>
                    </g>
                </g>
                <path d="M676.206921,141.686561 C689.491314,152.315078 698,168.663884 698,187 C698,201.815085 698,212.926399 698,220.333942" id="Rectangle-21" stroke="#FF307A" stroke-width="4" stroke-linecap="round" stroke-linejoin="round"></path>
                <g id="Group" transform="translate(224.000000, 133.000000)">
                    <g id="Group-16" transform="translate(0.000000, 140.310059)">
                        <g id="Group-8" transform="translate(0.500000, 20.000000)">
                            <path d="M256.175429,10.0905956 C257.069044,10.7398452 257.267142,11.9905846 256.617892,12.8842001 L249.564469,22.592404 C248.915219,23.4860195 247.66448,23.6841171 246.770865,23.0348675 C245.877249,22.3856178 245.679151,21.1348785 246.328401,20.241263 L253.381824,10.5330591 C254.031074,9.63944356 255.281813,9.44134591 256.175429,10.0905956 Z" id="Path" fill="#1A2C36"></path>
                            <path d="M2.5,9.70848769 L248,9.70848769 C249.104569,9.70848769 250,10.6039182 250,11.7084877 L250,11.7084877 C250,12.8130572 249.104569,13.7084877 248,13.7084877 L2.5,13.7084877 C1.3954305,13.7084877 0.5,12.8130572 0.5,11.7084877 L0.5,11.7084877 C0.5,10.6039182 1.3954305,9.70848769 2.5,9.70848769 Z" id="Mask" fill="#1A2C36"></path>
                            <mask id="mask-2" fill="white">
                                <use xlink:href="#path-1"></use>
                            </mask>
                            <use id="Path" fill="#1A2C36" xlink:href="#path-1"></use>
                        </g>
                        <g id="Group-8" transform="translate(129.500000, 12.000000) scale(-1, 1) translate(-129.500000, -12.000000) translate(1.000000, 0.000000)">
                            <path d="M256.175429,10.0905956 C257.069044,10.7398452 257.267142,11.9905846 256.617892,12.8842001 L249.564469,22.592404 C248.915219,23.4860195 247.66448,23.6841171 246.770865,23.0348675 C245.877249,22.3856178 245.679151,21.1348785 246.328401,20.241263 L253.381824,10.5330591 C254.031074,9.63944356 255.281813,9.44134591 256.175429,10.0905956 Z" id="Path" fill="#1A2C36"></path>
                            <rect id="Mask" fill="#1A2C36" x="0.972020635" y="9.70848769" width="249" height="4" rx="2"></rect>
                            <mask id="mask-4" fill="white">
                                <use xlink:href="#path-3"></use>
                            </mask>
                            <use id="Path" fill="#1A2C36" xlink:href="#path-3"></use>
                        </g>
                    </g>
                    <g id="Group-16" transform="translate(245.000000, 230.310059)">
                        <g id="Group-8" transform="translate(0.500000, 0.000000)">
                            <path d="M11.1754286,10.0905956 C12.0690441,10.7398452 12.2671418,11.9905846 11.6178921,12.8842001 L4.56446908,22.592404 C3.91521942,23.4860195 2.66448009,23.6841171 1.77086459,23.0348675 C0.877249094,22.3856178 0.679151444,21.1348785 1.32840111,20.241263 L8.38182413,10.5330591 C9.0310738,9.63944356 10.2818131,9.44134591 11.1754286,10.0905956 Z" id="Path" fill="#1A2C36"></path>
                            <mask id="mask-6" fill="white">
                                <use xlink:href="#path-5"></use>
                            </mask>
                            <use id="Path" fill="#1A2C36" xlink:href="#path-5"></use>
                        </g>
                    </g>
                    <g id="Group-16-Copy-3" transform="translate(1.000000, 280.310059)">
                        <g id="Group-8" transform="translate(6.000000, 12.000000) scale(-1, 1) translate(-6.000000, -12.000000) ">
                            <path d="M11.1754286,10.0905956 C12.0690441,10.7398452 12.2671418,11.9905846 11.6178921,12.8842001 L4.56446908,22.592404 C3.91521942,23.4860195 2.66448009,23.6841171 1.77086459,23.0348675 C0.877249094,22.3856178 0.679151444,21.1348785 1.32840111,20.241263 L8.38182413,10.5330591 C9.0310738,9.63944356 10.2818131,9.44134591 11.1754286,10.0905956 Z" id="Path" fill="#1A2C36"></path>
                            <mask id="mask-8" fill="white">
                                <use xlink:href="#path-7"></use>
                            </mask>
                            <use id="Path" fill="#1A2C36" xlink:href="#path-7"></use>
                        </g>
                    </g>
                    <g id="Group-16-Copy-2" transform="translate(1.000000, 0.310059)">
                        <g id="Group-8" transform="translate(6.000000, 12.000000) scale(-1, 1) translate(-6.000000, -12.000000) ">
                            <path d="M11.1754286,10.0905956 C12.0690441,10.7398452 12.2671418,11.9905846 11.6178921,12.8842001 L4.56446908,22.592404 C3.91521942,23.4860195 2.66448009,23.6841171 1.77086459,23.0348675 C0.877249094,22.3856178 0.679151444,21.1348785 1.32840111,20.241263 L8.38182413,10.5330591 C9.0310738,9.63944356 10.2818131,9.44134591 11.1754286,10.0905956 Z" id="Path" fill="#1A2C36"></path>
                            <mask id="mask-10" fill="white">
                                <use xlink:href="#path-9"></use>
                            </mask>
                            <use id="Path" fill="#1A2C36" xlink:href="#path-9"></use>
                        </g>
                    </g>
                    <g id="Group-16" transform="translate(245.000000, 90.310059)">
                        <g id="Group-8" transform="translate(0.500000, 0.000000)">
                            <path d="M11.1754286,10.0905956 C12.0690441,10.7398452 12.2671418,11.9905846 11.6178921,12.8842001 L4.56446908,22.592404 C3.91521942,23.4860195 2.66448009,23.6841171 1.77086459,23.0348675 C0.877249094,22.3856178 0.679151444,21.1348785 1.32840111,20.241263 L8.38182413,10.5330591 C9.0310738,9.63944356 10.2818131,9.44134591 11.1754286,10.0905956 Z" id="Path" fill="#1A2C36"></path>
                            <mask id="mask-12" fill="white">
                                <use xlink:href="#path-11"></use>
                            </mask>
                            <use id="Path" fill="#1A2C36" xlink:href="#path-11"></use>
                        </g>
                    </g>
                    <path d="M10,12 C58.8326823,12 99.6660156,23.6666667 132.5,47 C165.333984,70.3333333 206.167318,82 255,82" id="Path-4" stroke="#1A2C36" stroke-width="4" stroke-linecap="round" stroke-linejoin="round"></path>
                    <path d="M10,222 C54.1660156,222 92.6660156,233.666667 125.5,257 C158.333984,280.333333 201.500651,292 255,292" id="Path-4-Copy" stroke="#1A2C36" stroke-width="4" stroke-linecap="round" stroke-linejoin="round" transform="translate(132.500000, 257.000000) scale(1, -1) translate(-132.500000, -257.000000) "></path>
                    <path d="M3,32 C51.8326823,32 92.6660156,43.6666667 125.5,67 C158.333984,90.3333333 199.167318,102 248,102" id="Path-4" stroke="#1A2C36" stroke-width="4" stroke-linecap="round" stroke-linejoin="round"></path>
                    <path d="M3,242 C56.499349,242 99.6660156,253.666667 132.5,277 C165.333984,300.333333 203.833984,312 248,312" id="Path-4-Copy-2" stroke="#1A2C36" stroke-width="4" stroke-linecap="round" stroke-linejoin="round" transform="translate(125.500000, 277.000000) scale(1, -1) translate(-125.500000, -277.000000) "></path>
                </g>
                <g id="Group-Copy" transform="translate(926.996094, 289.000000) scale(-1, 1) translate(-926.996094, -289.000000) translate(797.996094, 133.000000)">
                    <g id="Group-16" transform="translate(0.000000, 140.310059)">
                        <g id="Group-8" transform="translate(0.500000, 20.000000)">
                            <path d="M256.175429,10.0905956 C257.069044,10.7398452 257.267142,11.9905846 256.617892,12.8842001 L249.564469,22.592404 C248.915219,23.4860195 247.66448,23.6841171 246.770865,23.0348675 C245.877249,22.3856178 245.679151,21.1348785 246.328401,20.241263 L253.381824,10.5330591 C254.031074,9.63944356 255.281813,9.44134591 256.175429,10.0905956 Z" id="Path" fill="#1A2C36"></path>
                            <path d="M2.5,9.70848769 L248,9.70848769 C249.104569,9.70848769 250,10.6039182 250,11.7084877 L250,11.7084877 C250,12.8130572 249.104569,13.7084877 248,13.7084877 L2.5,13.7084877 C1.3954305,13.7084877 0.5,12.8130572 0.5,11.7084877 L0.5,11.7084877 C0.5,10.6039182 1.3954305,9.70848769 2.5,9.70848769 Z" id="Mask" fill="#1A2C36"></path>
                            <mask id="mask-14" fill="white">
                                <use xlink:href="#path-13"></use>
                            </mask>
                            <use id="Path" fill="#1A2C36" xlink:href="#path-13"></use>
                        </g>
                        <g id="Group-8" transform="translate(129.500000, 12.000000) scale(-1, 1) translate(-129.500000, -12.000000) translate(1.000000, 0.000000)">
                            <path d="M256.175429,10.0905956 C257.069044,10.7398452 257.267142,11.9905846 256.617892,12.8842001 L249.564469,22.592404 C248.915219,23.4860195 247.66448,23.6841171 246.770865,23.0348675 C245.877249,22.3856178 245.679151,21.1348785 246.328401,20.241263 L253.381824,10.5330591 C254.031074,9.63944356 255.281813,9.44134591 256.175429,10.0905956 Z" id="Path" fill="#1A2C36"></path>
                            <rect id="Mask" fill="#1A2C36" x="0.972020635" y="9.70848769" width="249" height="4" rx="2"></rect>
                            <mask id="mask-16" fill="white">
                                <use xlink:href="#path-15"></use>
                            </mask>
                            <use id="Path" fill="#1A2C36" xlink:href="#path-15"></use>
                        </g>
                    </g>
                    <g id="Group-16" transform="translate(245.000000, 230.310059)">
                        <g id="Group-8" transform="translate(0.500000, 0.000000)">
                            <path d="M11.1754286,10.0905956 C12.0690441,10.7398452 12.2671418,11.9905846 11.6178921,12.8842001 L4.56446908,22.592404 C3.91521942,23.4860195 2.66448009,23.6841171 1.77086459,23.0348675 C0.877249094,22.3856178 0.679151444,21.1348785 1.32840111,20.241263 L8.38182413,10.5330591 C9.0310738,9.63944356 10.2818131,9.44134591 11.1754286,10.0905956 Z" id="Path" fill="#1A2C36"></path>
                            <mask id="mask-18" fill="white">
                                <use xlink:href="#path-17"></use>
                            </mask>
                            <use id="Path" fill="#1A2C36" xlink:href="#path-17"></use>
                        </g>
                    </g>
                    <g id="Group-16-Copy-3" transform="translate(1.000000, 280.310059)">
                        <g id="Group-8" transform="translate(6.000000, 12.000000) scale(-1, 1) translate(-6.000000, -12.000000) ">
                            <path d="M11.1754286,10.0905956 C12.0690441,10.7398452 12.2671418,11.9905846 11.6178921,12.8842001 L4.56446908,22.592404 C3.91521942,23.4860195 2.66448009,23.6841171 1.77086459,23.0348675 C0.877249094,22.3856178 0.679151444,21.1348785 1.32840111,20.241263 L8.38182413,10.5330591 C9.0310738,9.63944356 10.2818131,9.44134591 11.1754286,10.0905956 Z" id="Path" fill="#1A2C36"></path>
                            <mask id="mask-20" fill="white">
                                <use xlink:href="#path-19"></use>
                            </mask>
                            <use id="Path" fill="#1A2C36" xlink:href="#path-19"></use>
                        </g>
                    </g>
                    <g id="Group-16-Copy-2" transform="translate(1.000000, 0.310059)">
                        <g id="Group-8" transform="translate(6.000000, 12.000000) scale(-1, 1) translate(-6.000000, -12.000000) ">
                            <path d="M11.1754286,10.0905956 C12.0690441,10.7398452 12.2671418,11.9905846 11.6178921,12.8842001 L4.56446908,22.592404 C3.91521942,23.4860195 2.66448009,23.6841171 1.77086459,23.0348675 C0.877249094,22.3856178 0.679151444,21.1348785 1.32840111,20.241263 L8.38182413,10.5330591 C9.0310738,9.63944356 10.2818131,9.44134591 11.1754286,10.0905956 Z" id="Path" fill="#1A2C36"></path>
                            <mask id="mask-22" fill="white">
                                <use xlink:href="#path-21"></use>
                            </mask>
                            <use id="Path" fill="#1A2C36" xlink:href="#path-21"></use>
                        </g>
                    </g>
                    <g id="Group-16" transform="translate(245.000000, 90.310059)">
                        <g id="Group-8" transform="translate(0.500000, 0.000000)">
                            <path d="M11.1754286,10.0905956 C12.0690441,10.7398452 12.2671418,11.9905846 11.6178921,12.8842001 L4.56446908,22.592404 C3.91521942,23.4860195 2.66448009,23.6841171 1.77086459,23.0348675 C0.877249094,22.3856178 0.679151444,21.1348785 1.32840111,20.241263 L8.38182413,10.5330591 C9.0310738,9.63944356 10.2818131,9.44134591 11.1754286,10.0905956 Z" id="Path" fill="#1A2C36"></path>
                            <mask id="mask-24" fill="white">
                                <use xlink:href="#path-23"></use>
                            </mask>
                            <use id="Path" fill="#1A2C36" xlink:href="#path-23"></use>
                        </g>
                    </g>
                    <path d="M10,12 C58.8326823,12 99.6660156,23.6666667 132.5,47 C165.333984,70.3333333 206.167318,82 255,82" id="Path-4" stroke="#1A2C36" stroke-width="4" stroke-linecap="round" stroke-linejoin="round"></path>
                    <path d="M10,222 C54.1660156,222 92.6660156,233.666667 125.5,257 C158.333984,280.333333 201.500651,292 255,292" id="Path-4-Copy" stroke="#1A2C36" stroke-width="4" stroke-linecap="round" stroke-linejoin="round" transform="translate(132.500000, 257.000000) scale(1, -1) translate(-132.500000, -257.000000) "></path>
                    <path d="M3,32 C51.8326823,32 92.6660156,43.6666667 125.5,67 C158.333984,90.3333333 199.167318,102 248,102" id="Path-4" stroke="#1A2C36" stroke-width="4" stroke-linecap="round" stroke-linejoin="round"></path>
                    <path d="M3,242 C56.499349,242 99.6660156,253.666667 132.5,277 C165.333984,300.333333 203.833984,312 248,312" id="Path-4-Copy-2" stroke="#1A2C36" stroke-width="4" stroke-linecap="round" stroke-linejoin="round" transform="translate(125.500000, 277.000000) scale(1, -1) translate(-125.500000, -277.000000) "></path>
                </g>
                <path d="M72.9054688,58.7664595 L69.7882813,58.7664595 L67.5617188,54.4852095 L64.8585938,54.4852095 L64.8585938,58.7508345 L62.1476563,58.7508345 L62.1476563,46.3445845 L68.4210938,46.3445845 C71.1085938,46.3445845 72.6789063,48.0008345 72.6789063,50.4852095 C72.6789063,52.3133345 71.8273438,53.6102095 70.3117188,54.1727095 L72.9054688,58.7664595 Z M64.8585938,48.649272 L64.8585938,52.180522 L67.9757813,52.180522 C69.3976563,52.180522 69.9835938,51.5164595 69.9835938,50.414897 C69.9835938,49.2820845 69.3664063,48.649272 67.9757813,48.649272 L64.8585938,48.649272 Z M79.2523438,56.883647 C80.0648438,56.883647 80.9164063,56.477397 81.3617188,55.727397 L83.1039063,57.0477095 C81.9554688,58.571147 80.5804688,58.930522 79.2132813,58.930522 C76.4398438,58.930522 74.3851563,57.3914595 74.3851563,54.211772 C74.3851563,51.227397 76.1898438,49.368022 78.8695313,49.368022 C81.3695313,49.368022 83.1429688,51.039897 83.1429688,53.8289595 C83.1429688,54.1102095 83.1351563,54.274272 83.0570313,54.774272 L77.0414063,54.774272 C77.0726563,56.039897 77.9945313,56.883647 79.2523438,56.883647 Z M78.8304688,51.321147 C77.6898438,51.321147 77.2132813,52.024272 77.0882813,52.8445845 L80.5570313,52.8445845 C80.4398438,51.914897 79.8773438,51.321147 78.8304688,51.321147 Z M88.8882813,58.9383345 C87.4898438,58.9383345 85.9507813,58.430522 84.7945313,57.5008345 L86.0523438,55.696147 C86.7554688,56.4539595 87.8335938,57.0477095 88.8960938,57.0477095 C89.6148438,57.0477095 90.2007813,56.758647 90.2007813,56.118022 C90.2007813,55.602397 89.7945313,55.4227095 88.9976563,55.211772 L87.8648438,54.914897 C86.2476563,54.4852095 85.3023438,53.7508345 85.3023438,52.227397 C85.3023438,50.2977095 86.7945313,49.368022 88.9585938,49.368022 C90.6304688,49.368022 91.7789063,49.9852095 92.6929688,50.7352095 L91.5210938,52.3445845 C90.7085938,51.5320845 89.7632813,51.133647 88.9429688,51.133647 C88.2632813,51.133647 87.8101563,51.4227095 87.8101563,51.9227095 C87.8101563,52.321147 88.1148438,52.508647 88.6695313,52.6570845 L90.1929688,53.071147 C91.4351563,53.414897 92.8414063,54.008647 92.8414063,55.961772 C92.8414063,57.852397 91.4820313,58.9383345 88.8882813,58.9383345 Z M99.2898438,58.946147 C96.6882813,58.946147 94.7273438,57.2977095 94.7273438,54.180522 C94.7273438,51.024272 96.6882813,49.368022 99.2898438,49.368022 C101.891406,49.368022 103.836719,51.024272 103.836719,54.180522 C103.836719,57.2977095 101.891406,58.946147 99.2898438,58.946147 Z M99.3054688,56.8133345 C100.438281,56.8133345 101.274219,56.071147 101.274219,54.180522 C101.274219,52.2508345 100.438281,51.493022 99.3054688,51.493022 C98.1726563,51.493022 97.3289063,52.243022 97.3289063,54.180522 C97.3289063,56.0789595 98.1726563,56.8133345 99.3054688,56.8133345 Z M114.761719,49.5477095 L114.761719,58.7508345 L112.167969,58.7508345 L112.167969,57.6570845 L112.074219,57.6570845 C111.566406,58.3445845 110.605469,58.930522 109.246094,58.930522 C107.371094,58.930522 106.113281,57.680522 106.113281,55.571147 L106.113281,49.5477095 L108.722656,49.5477095 L108.722656,54.930522 C108.722656,56.2664595 109.324219,56.789897 110.292969,56.789897 C111.355469,56.789897 112.128906,56.1414595 112.128906,54.5164595 L112.128906,49.5477095 L114.761719,49.5477095 Z M117.905469,58.7508345 L117.905469,49.5477095 L120.452344,49.5477095 L120.452344,51.2039595 L120.499219,51.2039595 C120.999219,49.883647 122.022656,49.368022 123.553906,49.368022 L123.553906,51.649272 C121.233594,51.8445845 120.538281,52.899272 120.538281,55.3133345 L120.538281,58.7508345 L117.905469,58.7508345 Z M129.432031,58.993022 C126.830469,58.993022 124.869531,57.3289595 124.869531,54.180522 C124.869531,51.024272 126.830469,49.368022 129.432031,49.368022 C131.502344,49.368022 133.142969,50.399272 133.650781,52.399272 L131.330469,53.196147 C131.088281,51.977397 130.361719,51.493022 129.447656,51.493022 C128.314844,51.493022 127.471094,52.243022 127.471094,54.180522 C127.471094,56.118022 128.314844,56.8602095 129.447656,56.8602095 C130.361719,56.8602095 131.088281,56.3758345 131.330469,55.164897 L133.650781,55.961772 C133.142969,57.961772 131.502344,58.993022 129.432031,58.993022 Z M140.153906,56.883647 C140.966406,56.883647 141.817969,56.477397 142.263281,55.727397 L144.005469,57.0477095 C142.857031,58.571147 141.482031,58.930522 140.114844,58.930522 C137.341406,58.930522 135.286719,57.3914595 135.286719,54.211772 C135.286719,51.227397 137.091406,49.368022 139.771094,49.368022 C142.271094,49.368022 144.044531,51.039897 144.044531,53.8289595 C144.044531,54.1102095 144.036719,54.274272 143.958594,54.774272 L137.942969,54.774272 C137.974219,56.039897 138.896094,56.883647 140.153906,56.883647 Z M139.732031,51.321147 C138.591406,51.321147 138.114844,52.024272 137.989844,52.8445845 L141.458594,52.8445845 C141.341406,51.914897 140.778906,51.321147 139.732031,51.321147 Z M151.988281,58.7508345 L151.988281,46.3445845 L158.261719,46.3445845 C160.949219,46.3445845 162.519531,48.0008345 162.519531,50.4852095 C162.519531,52.977397 160.933594,54.4852095 158.261719,54.4852095 L154.699219,54.4852095 L154.699219,58.7508345 L151.988281,58.7508345 Z M154.699219,52.180522 L157.816406,52.180522 C159.238281,52.180522 159.824219,51.5164595 159.824219,50.414897 C159.824219,49.2820845 159.207031,48.649272 157.816406,48.649272 L154.699219,48.649272 L154.699219,52.180522 Z M164.983594,58.7508345 L164.983594,49.5477095 L167.530469,49.5477095 L167.530469,51.2039595 L167.577344,51.2039595 C168.077344,49.883647 169.100781,49.368022 170.632031,49.368022 L170.632031,51.649272 C168.311719,51.8445845 167.616406,52.899272 167.616406,55.3133345 L167.616406,58.7508345 L164.983594,58.7508345 Z M176.510156,58.946147 C173.908594,58.946147 171.947656,57.2977095 171.947656,54.180522 C171.947656,51.024272 173.908594,49.368022 176.510156,49.368022 C179.111719,49.368022 181.057031,51.024272 181.057031,54.180522 C181.057031,57.2977095 179.111719,58.946147 176.510156,58.946147 Z M176.525781,56.8133345 C177.658594,56.8133345 178.494531,56.071147 178.494531,54.180522 C178.494531,52.2508345 177.658594,51.493022 176.525781,51.493022 C175.392969,51.493022 174.549219,52.243022 174.549219,54.180522 C174.549219,56.0789595 175.392969,56.8133345 176.525781,56.8133345 Z M189.482031,49.5477095 L192.310156,49.5477095 L188.911719,58.7508345 L185.786719,58.7508345 L182.380469,49.5477095 L185.224219,49.5477095 L187.357031,56.5477095 L189.482031,49.5477095 Z M194.305469,48.2664595 L194.305469,46.3445845 L196.938281,46.3445845 L196.938281,48.2664595 L194.305469,48.2664595 Z M194.305469,58.7508345 L194.305469,49.5477095 L196.938281,49.5477095 L196.938281,58.7508345 L194.305469,58.7508345 Z M203.238281,58.946147 C200.894531,58.946147 199.464844,57.008647 199.464844,54.149272 C199.464844,51.305522 200.871094,49.368022 203.191406,49.368022 C204.542969,49.368022 205.316406,49.8758345 205.832031,50.508647 L205.878906,50.508647 L205.878906,46.3445845 L208.519531,46.3445845 L208.519531,58.7508345 L205.941406,58.7508345 L205.941406,57.789897 L205.886719,57.789897 C205.449219,58.3602095 204.667969,58.946147 203.238281,58.946147 Z M204.121094,56.821147 C205.269531,56.821147 206.042969,55.8445845 206.042969,54.1258345 C206.042969,52.508647 205.269531,51.508647 204.121094,51.508647 C202.855469,51.508647 202.128906,52.383647 202.128906,54.1258345 C202.128906,55.961772 202.855469,56.821147 204.121094,56.821147 Z M215.858594,56.883647 C216.671094,56.883647 217.522656,56.477397 217.967969,55.727397 L219.710156,57.0477095 C218.561719,58.571147 217.186719,58.930522 215.819531,58.930522 C213.046094,58.930522 210.991406,57.3914595 210.991406,54.211772 C210.991406,51.227397 212.796094,49.368022 215.475781,49.368022 C217.975781,49.368022 219.749219,51.039897 219.749219,53.8289595 C219.749219,54.1102095 219.741406,54.274272 219.663281,54.774272 L213.647656,54.774272 C213.678906,56.039897 214.600781,56.883647 215.858594,56.883647 Z M215.436719,51.321147 C214.296094,51.321147 213.819531,52.024272 213.694531,52.8445845 L217.163281,52.8445845 C217.046094,51.914897 216.483594,51.321147 215.436719,51.321147 Z M222.283594,58.7508345 L222.283594,49.5477095 L224.830469,49.5477095 L224.830469,51.2039595 L224.877344,51.2039595 C225.377344,49.883647 226.400781,49.368022 227.932031,49.368022 L227.932031,51.649272 C225.611719,51.8445845 224.916406,52.899272 224.916406,55.3133345 L224.916406,58.7508345 L222.283594,58.7508345 Z M233.060156,58.9383345 C231.661719,58.9383345 230.122656,58.430522 228.966406,57.5008345 L230.224219,55.696147 C230.927344,56.4539595 232.005469,57.0477095 233.067969,57.0477095 C233.786719,57.0477095 234.372656,56.758647 234.372656,56.118022 C234.372656,55.602397 233.966406,55.4227095 233.169531,55.211772 L232.036719,54.914897 C230.419531,54.4852095 229.474219,53.7508345 229.474219,52.227397 C229.474219,50.2977095 230.966406,49.368022 233.130469,49.368022 C234.802344,49.368022 235.950781,49.9852095 236.864844,50.7352095 L235.692969,52.3445845 C234.880469,51.5320845 233.935156,51.133647 233.114844,51.133647 C232.435156,51.133647 231.982031,51.4227095 231.982031,51.9227095 C231.982031,52.321147 232.286719,52.508647 232.841406,52.6570845 L234.364844,53.071147 C235.607031,53.414897 237.013281,54.008647 237.013281,55.961772 C237.013281,57.852397 235.653906,58.9383345 233.060156,58.9383345 Z" id="Resource-Providers" fill="#1A2C36"></path>
                <path d="M1074.65,58.7664595 L1071.53281,58.7664595 L1069.30625,54.4852095 L1066.60313,54.4852095 L1066.60313,58.7508345 L1063.89219,58.7508345 L1063.89219,46.3445845 L1070.16563,46.3445845 C1072.85313,46.3445845 1074.42344,48.0008345 1074.42344,50.4852095 C1074.42344,52.3133345 1073.57188,53.6102095 1072.05625,54.1727095 L1074.65,58.7664595 Z M1066.60313,48.649272 L1066.60313,52.180522 L1069.72031,52.180522 C1071.14219,52.180522 1071.72813,51.5164595 1071.72813,50.414897 C1071.72813,49.2820845 1071.11094,48.649272 1069.72031,48.649272 L1066.60313,48.649272 Z M1080.99688,56.883647 C1081.80938,56.883647 1082.66094,56.477397 1083.10625,55.727397 L1084.84844,57.0477095 C1083.7,58.571147 1082.325,58.930522 1080.95781,58.930522 C1078.18438,58.930522 1076.12969,57.3914595 1076.12969,54.211772 C1076.12969,51.227397 1077.93438,49.368022 1080.61406,49.368022 C1083.11406,49.368022 1084.8875,51.039897 1084.8875,53.8289595 C1084.8875,54.1102095 1084.87969,54.274272 1084.80156,54.774272 L1078.78594,54.774272 C1078.81719,56.039897 1079.73906,56.883647 1080.99688,56.883647 Z M1080.575,51.321147 C1079.43438,51.321147 1078.95781,52.024272 1078.83281,52.8445845 L1082.30156,52.8445845 C1082.18438,51.914897 1081.62188,51.321147 1080.575,51.321147 Z M1090.63281,58.9383345 C1089.23438,58.9383345 1087.69531,58.430522 1086.53906,57.5008345 L1087.79688,55.696147 C1088.5,56.4539595 1089.57813,57.0477095 1090.64063,57.0477095 C1091.35938,57.0477095 1091.94531,56.758647 1091.94531,56.118022 C1091.94531,55.602397 1091.53906,55.4227095 1090.74219,55.211772 L1089.60938,54.914897 C1087.99219,54.4852095 1087.04688,53.7508345 1087.04688,52.227397 C1087.04688,50.2977095 1088.53906,49.368022 1090.70313,49.368022 C1092.375,49.368022 1093.52344,49.9852095 1094.4375,50.7352095 L1093.26563,52.3445845 C1092.45313,51.5320845 1091.50781,51.133647 1090.6875,51.133647 C1090.00781,51.133647 1089.55469,51.4227095 1089.55469,51.9227095 C1089.55469,52.321147 1089.85938,52.508647 1090.41406,52.6570845 L1091.9375,53.071147 C1093.17969,53.414897 1094.58594,54.008647 1094.58594,55.961772 C1094.58594,57.852397 1093.22656,58.9383345 1090.63281,58.9383345 Z M1101.33906,56.883647 C1102.15156,56.883647 1103.00313,56.477397 1103.44844,55.727397 L1105.19063,57.0477095 C1104.04219,58.571147 1102.66719,58.930522 1101.3,58.930522 C1098.52656,58.930522 1096.47188,57.3914595 1096.47188,54.211772 C1096.47188,51.227397 1098.27656,49.368022 1100.95625,49.368022 C1103.45625,49.368022 1105.22969,51.039897 1105.22969,53.8289595 C1105.22969,54.1102095 1105.22188,54.274272 1105.14375,54.774272 L1099.12813,54.774272 C1099.15938,56.039897 1100.08125,56.883647 1101.33906,56.883647 Z M1100.91719,51.321147 C1099.77656,51.321147 1099.3,52.024272 1099.175,52.8445845 L1102.64375,52.8445845 C1102.52656,51.914897 1101.96406,51.321147 1100.91719,51.321147 Z M1111.40469,49.368022 C1113.67031,49.368022 1115.12344,50.430522 1115.12344,52.539897 L1115.12344,58.7508345 L1112.80313,58.7508345 L1112.80313,57.7977095 C1111.70156,58.6883345 1110.74844,58.946147 1109.88906,58.946147 C1108.15469,58.946147 1107.0375,57.993022 1107.0375,56.368022 C1107.0375,54.586772 1108.42031,53.7195845 1110.27969,53.196147 L1112.80313,52.477397 C1112.76406,51.7352095 1112.21719,51.336772 1111.32656,51.336772 C1110.27969,51.336772 1109.1,51.868022 1108.33438,52.586772 L1107.20938,50.8445845 C1108.48281,49.8133345 1109.95938,49.368022 1111.40469,49.368022 Z M1110.65469,57.086772 C1111.38125,57.086772 1112.1,56.680522 1112.80313,56.0789595 L1112.80313,54.3602095 L1110.90469,54.9695845 C1110.05313,55.243022 1109.63906,55.5477095 1109.63906,56.164897 C1109.63906,56.7352095 1110.01406,57.086772 1110.65469,57.086772 Z M1118.07188,58.7508345 L1118.07188,49.5477095 L1120.61875,49.5477095 L1120.61875,51.2039595 L1120.66563,51.2039595 C1121.16563,49.883647 1122.18906,49.368022 1123.72031,49.368022 L1123.72031,51.649272 C1121.4,51.8445845 1120.70469,52.899272 1120.70469,55.3133345 L1120.70469,58.7508345 L1118.07188,58.7508345 Z M1129.59844,58.993022 C1126.99688,58.993022 1125.03594,57.3289595 1125.03594,54.180522 C1125.03594,51.024272 1126.99688,49.368022 1129.59844,49.368022 C1131.66875,49.368022 1133.30938,50.399272 1133.81719,52.399272 L1131.49688,53.196147 C1131.25469,51.977397 1130.52813,51.493022 1129.61406,51.493022 C1128.48125,51.493022 1127.6375,52.243022 1127.6375,54.180522 C1127.6375,56.118022 1128.48125,56.8602095 1129.61406,56.8602095 C1130.52813,56.8602095 1131.25469,56.3758345 1131.49688,55.164897 L1133.81719,55.961772 C1133.30938,57.961772 1131.66875,58.993022 1129.59844,58.993022 Z M1136.125,58.7508345 L1136.125,46.3445845 L1138.71875,46.3445845 L1138.71875,50.6414595 L1138.82031,50.6414595 C1139.35156,49.9695845 1140.29688,49.368022 1141.61719,49.368022 C1143.53125,49.368022 1144.77344,50.6727095 1144.77344,52.7820845 L1144.77344,58.7508345 L1142.17188,58.7508345 L1142.17188,53.368022 C1142.17188,52.0320845 1141.5625,51.508647 1140.60938,51.508647 C1139.53125,51.508647 1138.76563,52.1570845 1138.76563,53.7820845 L1138.76563,58.7508345 L1136.125,58.7508345 Z M1155.55313,58.7508345 L1155.55313,48.6414595 L1151.85,48.6414595 L1151.85,46.3445845 L1161.99063,46.3445845 L1161.99063,48.6414595 L1158.27188,48.6414595 L1158.27188,58.7508345 L1155.55313,58.7508345 Z M1166.37656,58.946147 C1163.775,58.946147 1161.81406,57.2977095 1161.81406,54.180522 C1161.81406,51.024272 1163.775,49.368022 1166.37656,49.368022 C1168.97813,49.368022 1170.92344,51.024272 1170.92344,54.180522 C1170.92344,57.2977095 1168.97813,58.946147 1166.37656,58.946147 Z M1166.39219,56.8133345 C1167.525,56.8133345 1168.36094,56.071147 1168.36094,54.180522 C1168.36094,52.2508345 1167.525,51.493022 1166.39219,51.493022 C1165.25938,51.493022 1164.41563,52.243022 1164.41563,54.180522 C1164.41563,56.0789595 1165.25938,56.8133345 1166.39219,56.8133345 Z M1177.29375,58.946147 C1174.69219,58.946147 1172.73125,57.2977095 1172.73125,54.180522 C1172.73125,51.024272 1174.69219,49.368022 1177.29375,49.368022 C1179.89531,49.368022 1181.84063,51.024272 1181.84063,54.180522 C1181.84063,57.2977095 1179.89531,58.946147 1177.29375,58.946147 Z M1177.30938,56.8133345 C1178.44219,56.8133345 1179.27813,56.071147 1179.27813,54.180522 C1179.27813,52.2508345 1178.44219,51.493022 1177.30938,51.493022 C1176.17656,51.493022 1175.33281,52.243022 1175.33281,54.180522 C1175.33281,56.0789595 1176.17656,56.8133345 1177.30938,56.8133345 Z M1184.32031,58.7508345 L1184.32031,46.3445845 L1186.96094,46.3445845 L1186.96094,58.7508345 L1184.32031,58.7508345 Z M1193.31563,58.9383345 C1191.91719,58.9383345 1190.37813,58.430522 1189.22188,57.5008345 L1190.47969,55.696147 C1191.18281,56.4539595 1192.26094,57.0477095 1193.32344,57.0477095 C1194.04219,57.0477095 1194.62813,56.758647 1194.62813,56.118022 C1194.62813,55.602397 1194.22188,55.4227095 1193.425,55.211772 L1192.29219,54.914897 C1190.675,54.4852095 1189.72969,53.7508345 1189.72969,52.227397 C1189.72969,50.2977095 1191.22188,49.368022 1193.38594,49.368022 C1195.05781,49.368022 1196.20625,49.9852095 1197.12031,50.7352095 L1195.94844,52.3445845 C1195.13594,51.5320845 1194.19063,51.133647 1193.37031,51.133647 C1192.69063,51.133647 1192.2375,51.4227095 1192.2375,51.9227095 C1192.2375,52.321147 1192.54219,52.508647 1193.09688,52.6570845 L1194.62031,53.071147 C1195.8625,53.414897 1197.26875,54.008647 1197.26875,55.961772 C1197.26875,57.852397 1195.90938,58.9383345 1193.31563,58.9383345 Z" id="Research-Tools" fill="#1A2C36"></path>
                <path d="M565.319531,58.7664595 L562.202344,58.7664595 L559.975781,54.4852095 L557.272656,54.4852095 L557.272656,58.7508345 L554.561719,58.7508345 L554.561719,46.3445845 L560.835156,46.3445845 C563.522656,46.3445845 565.092969,48.0008345 565.092969,50.4852095 C565.092969,52.3133345 564.241406,53.6102095 562.725781,54.1727095 L565.319531,58.7664595 Z M557.272656,48.649272 L557.272656,52.180522 L560.389844,52.180522 C561.811719,52.180522 562.397656,51.5164595 562.397656,50.414897 C562.397656,49.2820845 561.780469,48.649272 560.389844,48.649272 L557.272656,48.649272 Z M568.182031,58.7508345 L568.182031,46.3445845 L570.900781,46.3445845 L570.900781,58.7508345 L568.182031,58.7508345 Z M578.802344,59.0164595 C576.646094,59.0164595 574.802344,58.1727095 573.692969,56.7977095 L575.286719,54.9227095 C576.364844,56.1414595 577.552344,56.696147 578.927344,56.696147 C580.099219,56.696147 580.950781,56.2977095 580.950781,55.1570845 C580.950781,54.352397 580.552344,53.899272 579.349219,53.6883345 L577.380469,53.3133345 C575.474219,52.9539595 574.067969,51.9227095 574.067969,49.789897 C574.067969,47.2352095 575.857031,46.0477095 578.364844,46.0477095 C580.114844,46.0477095 581.771094,46.6258345 583.083594,47.7977095 L581.646094,49.680522 C580.817969,48.805522 579.419531,48.2195845 578.271094,48.2195845 C577.341406,48.2195845 576.669531,48.586772 576.669531,49.4695845 C576.669531,50.149272 576.989844,50.586772 578.286719,50.821147 L579.911719,51.1258345 C581.982031,51.5164595 583.630469,52.5320845 583.630469,54.852397 C583.630469,57.461772 581.771094,59.0164595 578.802344,59.0164595 Z M586.446094,58.7508345 L586.446094,46.3445845 L595.563281,46.3445845 L595.563281,48.649272 L589.164844,48.649272 L589.164844,51.383647 L595.102344,51.383647 L595.102344,53.6883345 L589.164844,53.6883345 L589.164844,56.446147 L595.985156,56.446147 L595.985156,58.7508345 L586.446094,58.7508345 Z M612.686719,58.7508345 L611.780469,56.1102095 L606.678906,56.1102095 L605.772656,58.7508345 L602.835156,58.7508345 L607.413281,46.3445845 L611.046094,46.3445845 L615.624219,58.7508345 L612.686719,58.7508345 Z M607.428906,53.930522 L611.022656,53.930522 L609.264844,48.821147 L609.186719,48.821147 L607.428906,53.930522 Z M625.908594,49.5477095 L625.908594,58.7508345 L623.314844,58.7508345 L623.314844,57.6570845 L623.221094,57.6570845 C622.713281,58.3445845 621.752344,58.930522 620.392969,58.930522 C618.517969,58.930522 617.260156,57.680522 617.260156,55.571147 L617.260156,49.5477095 L619.869531,49.5477095 L619.869531,54.930522 C619.869531,56.2664595 620.471094,56.789897 621.439844,56.789897 C622.502344,56.789897 623.275781,56.1414595 623.275781,54.5164595 L623.275781,49.5477095 L625.908594,49.5477095 Z M631.802344,58.7508345 C630.091406,58.7508345 629.317969,57.883647 629.317969,56.055522 L629.317969,51.118022 L628.075781,51.118022 L628.075781,49.5477095 L629.317969,49.5477095 L629.317969,46.3445845 L631.942969,46.3445845 L631.942969,49.5477095 L633.864844,49.5477095 L633.864844,51.118022 L631.942969,51.118022 L631.942969,55.524272 C631.942969,56.4539595 632.161719,56.7039595 632.950781,56.7039595 L633.864844,56.7039595 L633.864844,58.7508345 L631.802344,58.7508345 Z M636.360156,58.7508345 L636.360156,46.3445845 L638.953906,46.3445845 L638.953906,50.6414595 L639.055469,50.6414595 C639.586719,49.9695845 640.532031,49.368022 641.852344,49.368022 C643.766406,49.368022 645.008594,50.6727095 645.008594,52.7820845 L645.008594,58.7508345 L642.407031,58.7508345 L642.407031,53.368022 C642.407031,52.0320845 641.797656,51.508647 640.844531,51.508647 C639.766406,51.508647 639.000781,52.1570845 639.000781,53.7820845 L639.000781,58.7508345 L636.360156,58.7508345 Z M651.839844,58.946147 C649.238281,58.946147 647.277344,57.2977095 647.277344,54.180522 C647.277344,51.024272 649.238281,49.368022 651.839844,49.368022 C654.441406,49.368022 656.386719,51.024272 656.386719,54.180522 C656.386719,57.2977095 654.441406,58.946147 651.839844,58.946147 Z M651.855469,56.8133345 C652.988281,56.8133345 653.824219,56.071147 653.824219,54.180522 C653.824219,52.2508345 652.988281,51.493022 651.855469,51.493022 C650.722656,51.493022 649.878906,52.243022 649.878906,54.180522 C649.878906,56.0789595 650.722656,56.8133345 651.855469,56.8133345 Z M658.866406,58.7508345 L658.866406,49.5477095 L661.413281,49.5477095 L661.413281,51.2039595 L661.460156,51.2039595 C661.960156,49.883647 662.983594,49.368022 664.514844,49.368022 L664.514844,51.649272 C662.194531,51.8445845 661.499219,52.899272 661.499219,55.3133345 L661.499219,58.7508345 L658.866406,58.7508345 Z M666.627344,48.2664595 L666.627344,46.3445845 L669.260156,46.3445845 L669.260156,48.2664595 L666.627344,48.2664595 Z M666.627344,58.7508345 L666.627344,49.5477095 L669.260156,49.5477095 L669.260156,58.7508345 L666.627344,58.7508345 Z M679.575781,49.5477095 L679.575781,51.5008345 L675.216406,56.6727095 L679.552344,56.6727095 L679.552344,58.7508345 L671.810156,58.7508345 L671.810156,56.9070845 L676.396094,51.6102095 L671.857031,51.6102095 L671.857031,49.5477095 L679.575781,49.5477095 Z M685.805469,49.368022 C688.071094,49.368022 689.524219,50.430522 689.524219,52.539897 L689.524219,58.7508345 L687.203906,58.7508345 L687.203906,57.7977095 C686.102344,58.6883345 685.149219,58.946147 684.289844,58.946147 C682.555469,58.946147 681.438281,57.993022 681.438281,56.368022 C681.438281,54.586772 682.821094,53.7195845 684.680469,53.196147 L687.203906,52.477397 C687.164844,51.7352095 686.617969,51.336772 685.727344,51.336772 C684.680469,51.336772 683.500781,51.868022 682.735156,52.586772 L681.610156,50.8445845 C682.883594,49.8133345 684.360156,49.368022 685.805469,49.368022 Z M685.055469,57.086772 C685.782031,57.086772 686.500781,56.680522 687.203906,56.0789595 L687.203906,54.3602095 L685.305469,54.9695845 C684.453906,55.243022 684.039844,55.5477095 684.039844,56.164897 C684.039844,56.7352095 684.414844,57.086772 685.055469,57.086772 Z M695.222656,58.7508345 C693.511719,58.7508345 692.738281,57.883647 692.738281,56.055522 L692.738281,51.118022 L691.496094,51.118022 L691.496094,49.5477095 L692.738281,49.5477095 L692.738281,46.3445845 L695.363281,46.3445845 L695.363281,49.5477095 L697.285156,49.5477095 L697.285156,51.118022 L695.363281,51.118022 L695.363281,55.524272 C695.363281,56.4539595 695.582031,56.7039595 696.371094,56.7039595 L697.285156,56.7039595 L697.285156,58.7508345 L695.222656,58.7508345 Z M699.780469,48.2664595 L699.780469,46.3445845 L702.413281,46.3445845 L702.413281,48.2664595 L699.780469,48.2664595 Z M699.780469,58.7508345 L699.780469,49.5477095 L702.413281,49.5477095 L702.413281,58.7508345 L699.780469,58.7508345 Z M709.447656,58.946147 C706.846094,58.946147 704.885156,57.2977095 704.885156,54.180522 C704.885156,51.024272 706.846094,49.368022 709.447656,49.368022 C712.049219,49.368022 713.994531,51.024272 713.994531,54.180522 C713.994531,57.2977095 712.049219,58.946147 709.447656,58.946147 Z M709.463281,56.8133345 C710.596094,56.8133345 711.432031,56.071147 711.432031,54.180522 C711.432031,52.2508345 710.596094,51.493022 709.463281,51.493022 C708.330469,51.493022 707.486719,52.243022 707.486719,54.180522 C707.486719,56.0789595 708.330469,56.8133345 709.463281,56.8133345 Z M716.474219,58.7508345 L716.474219,49.5477095 L719.067969,49.5477095 L719.067969,50.6414595 L719.161719,50.6414595 C719.669531,49.9539595 720.630469,49.368022 721.982031,49.368022 C723.857031,49.368022 725.114844,50.6102095 725.114844,52.7195845 L725.114844,58.7508345 L722.513281,58.7508345 L722.513281,53.368022 C722.513281,52.024272 721.903906,51.508647 720.942969,51.508647 C719.880469,51.508647 719.107031,52.1570845 719.107031,53.7820845 L719.107031,58.7508345 L716.474219,58.7508345 Z" id="RISE-Authorization" fill="#1A2C36"></path>
                <path d="M309.107031,273.265625 C306.950781,273.265625 305.107031,272.421875 303.997656,271.046875 L305.591406,269.171875 C306.669531,270.390625 307.857031,270.945312 309.232031,270.945312 C310.403906,270.945312 311.255469,270.546875 311.255469,269.40625 C311.255469,268.601562 310.857031,268.148438 309.653906,267.9375 L307.685156,267.5625 C305.778906,267.203125 304.372656,266.171875 304.372656,264.039062 C304.372656,261.484375 306.161719,260.296875 308.669531,260.296875 C310.419531,260.296875 312.075781,260.875 313.388281,262.046875 L311.950781,263.929688 C311.122656,263.054688 309.724219,262.46875 308.575781,262.46875 C307.646094,262.46875 306.974219,262.835938 306.974219,263.71875 C306.974219,264.398438 307.294531,264.835938 308.591406,265.070312 L310.216406,265.375 C312.286719,265.765625 313.935156,266.78125 313.935156,269.101562 C313.935156,271.710938 312.075781,273.265625 309.107031,273.265625 Z M316.750781,273 L316.750781,260.59375 L319.469531,260.59375 L319.469531,265.640625 L324.946094,265.640625 L324.946094,260.59375 L327.664844,260.59375 L327.664844,273 L324.946094,273 L324.946094,267.929688 L319.469531,267.929688 L319.469531,273 L316.750781,273 Z M331.402344,273 L331.402344,260.59375 L334.121094,260.59375 L334.121094,273 L331.402344,273 Z M337.858594,273 L337.858594,260.59375 L340.725781,260.59375 L346.038281,269.023438 L346.116406,269.023438 L346.116406,260.59375 L348.835156,260.59375 L348.835156,273 L345.928906,273 L340.671094,264.609375 L340.577344,264.609375 L340.577344,273 L337.858594,273 Z M352.572656,273 L352.572656,260.59375 L361.689844,260.59375 L361.689844,262.898438 L355.291406,262.898438 L355.291406,265.632812 L361.228906,265.632812 L361.228906,267.9375 L355.291406,267.9375 L355.291406,270.695312 L362.111719,270.695312 L362.111719,273 L352.572656,273 Z M378.813281,273 L377.907031,270.359375 L372.805469,270.359375 L371.899219,273 L368.961719,273 L373.539844,260.59375 L377.172656,260.59375 L381.750781,273 L378.813281,273 Z M373.555469,268.179688 L377.149219,268.179688 L375.391406,263.070312 L375.313281,263.070312 L373.555469,268.179688 Z M384.246094,273 L384.246094,260.59375 L390.519531,260.59375 C393.207031,260.59375 394.777344,262.25 394.777344,264.734375 C394.777344,267.226562 393.191406,268.734375 390.519531,268.734375 L386.957031,268.734375 L386.957031,273 L384.246094,273 Z M386.957031,266.429688 L390.074219,266.429688 C391.496094,266.429688 392.082031,265.765625 392.082031,264.664062 C392.082031,263.53125 391.464844,262.898438 390.074219,262.898438 L386.957031,262.898438 L386.957031,266.429688 Z M397.538281,273 L397.538281,260.59375 L400.257031,260.59375 L400.257031,273 L397.538281,273 Z" id="SHINE-API" fill="#1A2C36"></path>
                <path d="M883.103125,273.265625 C880.946875,273.265625 879.103125,272.421875 877.99375,271.046875 L879.5875,269.171875 C880.665625,270.390625 881.853125,270.945312 883.228125,270.945312 C884.4,270.945312 885.251563,270.546875 885.251563,269.40625 C885.251563,268.601562 884.853125,268.148438 883.65,267.9375 L881.68125,267.5625 C879.775,267.203125 878.36875,266.171875 878.36875,264.039062 C878.36875,261.484375 880.157813,260.296875 882.665625,260.296875 C884.415625,260.296875 886.071875,260.875 887.384375,262.046875 L885.946875,263.929688 C885.11875,263.054688 883.720313,262.46875 882.571875,262.46875 C881.642188,262.46875 880.970313,262.835938 880.970313,263.71875 C880.970313,264.398438 881.290625,264.835938 882.5875,265.070312 L884.2125,265.375 C886.282813,265.765625 887.93125,266.78125 887.93125,269.101562 C887.93125,271.710938 886.071875,273.265625 883.103125,273.265625 Z M890.746875,273 L890.746875,260.59375 L893.465625,260.59375 L893.465625,265.640625 L898.942188,265.640625 L898.942188,260.59375 L901.660938,260.59375 L901.660938,273 L898.942188,273 L898.942188,267.929688 L893.465625,267.929688 L893.465625,273 L890.746875,273 Z M905.398438,273 L905.398438,260.59375 L908.117188,260.59375 L908.117188,273 L905.398438,273 Z M911.854688,273 L911.854688,260.59375 L914.721875,260.59375 L920.034375,269.023438 L920.1125,269.023438 L920.1125,260.59375 L922.83125,260.59375 L922.83125,273 L919.925,273 L914.667188,264.609375 L914.573438,264.609375 L914.573438,273 L911.854688,273 Z M926.56875,273 L926.56875,260.59375 L935.685938,260.59375 L935.685938,262.898438 L929.2875,262.898438 L929.2875,265.632812 L935.225,265.632812 L935.225,267.9375 L929.2875,267.9375 L929.2875,270.695312 L936.107813,270.695312 L936.107813,273 L926.56875,273 Z M952.809375,273 L951.903125,270.359375 L946.801563,270.359375 L945.895313,273 L942.957813,273 L947.535938,260.59375 L951.16875,260.59375 L955.746875,273 L952.809375,273 Z M947.551563,268.179688 L951.145313,268.179688 L949.3875,263.070312 L949.309375,263.070312 L947.551563,268.179688 Z M958.242188,273 L958.242188,260.59375 L964.515625,260.59375 C967.203125,260.59375 968.773438,262.25 968.773438,264.734375 C968.773438,267.226562 967.1875,268.734375 964.515625,268.734375 L960.953125,268.734375 L960.953125,273 L958.242188,273 Z M960.953125,266.429688 L964.070313,266.429688 C965.492188,266.429688 966.078125,265.765625 966.078125,264.664062 C966.078125,263.53125 965.460938,262.898438 964.070313,262.898438 L960.953125,262.898438 L960.953125,266.429688 Z M971.534375,273 L971.534375,260.59375 L974.253125,260.59375 L974.253125,273 L971.534375,273 Z" id="SHINE-API-Copy" fill="#1A2C36"></path>
            </g>
        </g>
    </g>
</svg>