<?xml version="1.0" encoding="UTF-8"?>
<svg width="936px" height="494px" viewBox="0 0 936 494" version="1.1" xmlns="http://www.w3.org/2000/svg" xmlns:xlink="http://www.w3.org/1999/xlink">
    <!-- Generator: Sketch 50.2 (55047) - http://www.bohemiancoding.com/sketch -->
    <title>Infographic mobile</title>
    <desc>Created with Sketch.</desc>
    <defs>
        <path d="M174.675429,13.3263798 C173.781813,13.9756295 172.531074,13.7775318 171.881824,12.8839163 L164.828401,3.17571238 C164.179151,2.28209689 164.377249,1.03135755 165.270865,0.382107889 C166.16448,-0.267141773 167.415219,-0.0690441237 168.064469,0.824571373 L175.117892,10.5327753 C175.767142,11.4263908 175.569044,12.6771301 174.675429,13.3263798 Z" id="path-1"></path>
        <path d="M175.175429,13.3263798 C174.281813,13.9756295 173.031074,13.7775318 172.381824,12.8839163 L165.328401,3.17571238 C164.679151,2.28209689 164.877249,1.03135755 165.770865,0.382107889 C166.66448,-0.267141773 167.915219,-0.0690441237 168.564469,0.824571373 L175.617892,10.5327753 C176.267142,11.4263908 176.069044,12.6771301 175.175429,13.3263798 Z" id="path-3"></path>
        <path d="M11.1754286,13.3263798 C10.2818131,13.9756295 9.0310738,13.7775318 8.38182413,12.8839163 L1.32840111,3.17571238 C0.679151444,2.28209689 0.877249094,1.03135755 1.77086459,0.382107889 C2.66448009,-0.267141773 3.91521942,-0.0690441237 4.56446908,0.824571373 L11.6178921,10.5327753 C12.2671418,11.4263908 12.0690441,12.6771301 11.1754286,13.3263798 Z" id="path-5"></path>
        <path d="M11.1754286,13.3263798 C10.2818131,13.9756295 9.0310738,13.7775318 8.38182413,12.8839163 L1.32840111,3.17571238 C0.679151444,2.28209689 0.877249094,1.03135755 1.77086459,0.382107889 C2.66448009,-0.267141773 3.91521942,-0.0690441237 4.56446908,0.824571373 L11.6178921,10.5327753 C12.2671418,11.4263908 12.0690441,12.6771301 11.1754286,13.3263798 Z" id="path-7"></path>
        <path d="M11.1754286,13.3263798 C10.2818131,13.9756295 9.0310738,13.7775318 8.38182413,12.8839163 L1.32840111,3.17571238 C0.679151444,2.28209689 0.877249094,1.03135755 1.77086459,0.382107889 C2.66448009,-0.267141773 3.91521942,-0.0690441237 4.56446908,0.824571373 L11.6178921,10.5327753 C12.2671418,11.4263908 12.0690441,12.6771301 11.1754286,13.3263798 Z" id="path-9"></path>
        <path d="M11.1754286,13.3263798 C10.2818131,13.9756295 9.0310738,13.7775318 8.38182413,12.8839163 L1.32840111,3.17571238 C0.679151444,2.28209689 0.877249094,1.03135755 1.77086459,0.382107889 C2.66448009,-0.267141773 3.91521942,-0.0690441237 4.56446908,0.824571373 L11.6178921,10.5327753 C12.2671418,11.4263908 12.0690441,12.6771301 11.1754286,13.3263798 Z" id="path-11"></path>
        <path d="M174.675429,13.3263798 C173.781813,13.9756295 172.531074,13.7775318 171.881824,12.8839163 L164.828401,3.17571238 C164.179151,2.28209689 164.377249,1.03135755 165.270865,0.382107889 C166.16448,-0.267141773 167.415219,-0.0690441237 168.064469,0.824571373 L175.117892,10.5327753 C175.767142,11.4263908 175.569044,12.6771301 174.675429,13.3263798 Z" id="path-13"></path>
        <path d="M175.175429,13.3263798 C174.281813,13.9756295 173.031074,13.7775318 172.381824,12.8839163 L165.328401,3.17571238 C164.679151,2.28209689 164.877249,1.03135755 165.770865,0.382107889 C166.66448,-0.267141773 167.915219,-0.0690441237 168.564469,0.824571373 L175.617892,10.5327753 C176.267142,11.4263908 176.069044,12.6771301 175.175429,13.3263798 Z" id="path-15"></path>
        <path d="M11.1754286,13.3263798 C10.2818131,13.9756295 9.0310738,13.7775318 8.38182413,12.8839163 L1.32840111,3.17571238 C0.679151444,2.28209689 0.877249094,1.03135755 1.77086459,0.382107889 C2.66448009,-0.267141773 3.91521942,-0.0690441237 4.56446908,0.824571373 L11.6178921,10.5327753 C12.2671418,11.4263908 12.0690441,12.6771301 11.1754286,13.3263798 Z" id="path-17"></path>
        <path d="M11.1754286,13.3263798 C10.2818131,13.9756295 9.0310738,13.7775318 8.38182413,12.8839163 L1.32840111,3.17571238 C0.679151444,2.28209689 0.877249094,1.03135755 1.77086459,0.382107889 C2.66448009,-0.267141773 3.91521942,-0.0690441237 4.56446908,0.824571373 L11.6178921,10.5327753 C12.2671418,11.4263908 12.0690441,12.6771301 11.1754286,13.3263798 Z" id="path-19"></path>
        <path d="M11.1754286,13.3263798 C10.2818131,13.9756295 9.0310738,13.7775318 8.38182413,12.8839163 L1.32840111,3.17571238 C0.679151444,2.28209689 0.877249094,1.03135755 1.77086459,0.382107889 C2.66448009,-0.267141773 3.91521942,-0.0690441237 4.56446908,0.824571373 L11.6178921,10.5327753 C12.2671418,11.4263908 12.0690441,12.6771301 11.1754286,13.3263798 Z" id="path-21"></path>
        <path d="M11.1754286,13.3263798 C10.2818131,13.9756295 9.0310738,13.7775318 8.38182413,12.8839163 L1.32840111,3.17571238 C0.679151444,2.28209689 0.877249094,1.03135755 1.77086459,0.382107889 C2.66448009,-0.267141773 3.91521942,-0.0690441237 4.56446908,0.824571373 L11.6178921,10.5327753 C12.2671418,11.4263908 12.0690441,12.6771301 11.1754286,13.3263798 Z" id="path-23"></path>
    </defs>
    <g id="Page-1" stroke="none" stroke-width="1" fill="none" fill-rule="evenodd">
        <g id="Desktop-HD-Copy-48" transform="translate(0.000000, -1392.000000)">
            <g id="Group-3" transform="translate(24.000000, 1498.000000)" stroke="#FF307A" stroke-linecap="round" stroke-linejoin="round" stroke-width="4">
                <polyline id="Path-2" points="0 50 0 12 52 12 52 30"></polyline>
                <polyline id="Path-2" transform="translate(26.000000, 57.254999) scale(-1, -1) translate(-26.000000, -57.254999) " points="0 76.5099983 0 38 52 38 52 56.5099983"></polyline>
                <path d="M22,21 L44,21" id="Line-2"></path>
                <path d="M10,39 L34,39" id="Line-2"></path>
                <path d="M10,57 L34,57" id="Line-2"></path>
                <path d="M10,33 L24,33" id="Line-2"></path>
                <path d="M30,33 L44,33" id="Line-2-Copy"></path>
                <path d="M10,45 L16,45" id="Line-2"></path>
                <path d="M10,21 L16,21" id="Line-2-Copy-2"></path>
                <path d="M22,45 L44,45" id="Line-2-Copy"></path>
                <path d="M10,51 L40,51" id="Line-2"></path>
                <path d="M10,27 L40,27" id="Line-2"></path>
                <polyline id="Rectangle-12" points="6 6 58 6 58 70"></polyline>
                <polyline id="Rectangle-12" points="12 0 64 0 64 64"></polyline>
            </g>
            <g id="Group-3" transform="translate(24.000000, 1638.000000)" stroke="#FF307A" stroke-linecap="round" stroke-linejoin="round" stroke-width="4">
                <polyline id="Path-2" points="0 50 0 12 52 12 52 30"></polyline>
                <polyline id="Path-2" transform="translate(26.000000, 57.254999) scale(-1, -1) translate(-26.000000, -57.254999) " points="0 76.5099983 0 38 52 38 52 56.5099983"></polyline>
                <path d="M22,21 L44,21" id="Line-2"></path>
                <path d="M10,39 L34,39" id="Line-2"></path>
                <path d="M10,57 L34,57" id="Line-2"></path>
                <path d="M10,33 L24,33" id="Line-2"></path>
                <path d="M30,33 L44,33" id="Line-2-Copy"></path>
                <path d="M10,45 L16,45" id="Line-2"></path>
                <path d="M10,21 L16,21" id="Line-2-Copy-2"></path>
                <path d="M22,45 L44,45" id="Line-2-Copy"></path>
                <path d="M10,51 L40,51" id="Line-2"></path>
                <path d="M10,27 L40,27" id="Line-2"></path>
                <polyline id="Rectangle-12" points="6 6 58 6 58 70"></polyline>
                <polyline id="Rectangle-12" points="12 0 64 0 64 64"></polyline>
            </g>
            <g id="Group-3" transform="translate(24.000000, 1778.000000)" stroke="#FF307A" stroke-linecap="round" stroke-linejoin="round" stroke-width="4">
                <polyline id="Path-2" points="0 50 0 12 52 12 52 30"></polyline>
                <polyline id="Path-2" transform="translate(26.000000, 57.254999) scale(-1, -1) translate(-26.000000, -57.254999) " points="0 76.5099983 0 38 52 38 52 56.5099983"></polyline>
                <path d="M22,21 L44,21" id="Line-2"></path>
                <path d="M10,39 L34,39" id="Line-2"></path>
                <path d="M10,57 L34,57" id="Line-2"></path>
                <path d="M10,33 L24,33" id="Line-2"></path>
                <path d="M30,33 L44,33" id="Line-2-Copy"></path>
                <path d="M10,45 L16,45" id="Line-2"></path>
                <path d="M10,21 L16,21" id="Line-2-Copy-2"></path>
                <path d="M22,45 L44,45" id="Line-2-Copy"></path>
                <path d="M10,51 L40,51" id="Line-2"></path>
                <path d="M10,27 L40,27" id="Line-2"></path>
                <polyline id="Rectangle-12" points="6 6 58 6 58 70"></polyline>
                <polyline id="Rectangle-12" points="12 0 64 0 64 64"></polyline>
            </g>
            <g id="Group-15" transform="translate(351.000000, 1495.000000)">
                <rect id="Rectangle-19" stroke="#FF307A" stroke-width="4" fill="#FFFFFF" stroke-linecap="round" stroke-linejoin="round" x="0" y="125" width="230" height="144" rx="5"></rect>
                <g id="Group-7" transform="translate(40.500000, 0.000000)" stroke="#FF307A" stroke-width="4">
                    <path d="M124.5,125 L124.5,74 C124.5,46.3857625 102.114237,24 74.5,24 C46.8857625,24 24.5,46.3857625 24.5,74 L24.5,125 L0.5,125 L0.5,74 C0.5,33.1309285 33.6309285,7.50752664e-15 74.5,0 C115.369071,-7.50752664e-15 148.5,33.1309285 148.5,74 L148.5,125 L124.5,125 Z" id="Rectangle-21" fill="#FFFFFF" stroke-linecap="square"></path>
                    <path d="M8.5,109 C8.5,100.942708 8.5,89.2760417 8.5,74 C8.5,37.5492065 38.0492065,8 74.5,8 C81.6655368,8 88.5643677,9.14190324 95.0244456,11.2536625" id="Rectangle-21" stroke-linecap="round" stroke-linejoin="round"></path>
                </g>
                <path d="M8,168 L8,242" id="Path-3" stroke="#FF307A" stroke-width="4" stroke-linecap="round" stroke-linejoin="round"></path>
                <path d="M222,147 L222,168" id="Path-3-Copy" stroke="#FF307A" stroke-width="4" stroke-linecap="round" stroke-linejoin="round"></path>
                <circle id="Oval-7" fill="#FF307A" cx="8" cy="250" r="2"></circle>
                <circle id="Oval-7-Copy" fill="#FF307A" cx="222" cy="139" r="2"></circle>
            </g>
            <g id="Group-13" transform="translate(838.000000, 1510.000000)">
                <g id="Group-6">
                    <polyline id="Path-2" stroke="#FF307A" stroke-width="4" stroke-linecap="round" stroke-linejoin="round" points="50 56 0 56 0 0 42 0"></polyline>
                    <polyline id="Path-2" stroke="#FF307A" stroke-width="4" stroke-linecap="round" stroke-linejoin="round" points="50 0 72.5099983 0 72.5099983 56"></polyline>
                    <circle id="Oval-6" fill="#FF307A" cx="8" cy="8" r="2"></circle>
                    <circle id="Oval-6" fill="#FF307A" cx="14" cy="8" r="2"></circle>
                    <circle id="Oval-6" fill="#FF307A" cx="20" cy="8" r="2"></circle>
                </g>
                <g id="Icons-/-Navigation-/-Search-—-Default-Copy-6" transform="translate(21.000000, 12.000000)" fill="#FF307A">
                    <path d="M34.1706037,35.7583282 C34.1407722,35.7227295 34.1119621,35.6858516 34.084248,35.6477065 C33.4349984,34.754091 33.633096,33.5033516 34.5267115,32.854102 C37.207558,30.906353 37.801851,27.154135 35.854102,24.4732885 C33.906353,21.792442 30.154135,21.198149 27.4732885,23.145898 C24.792442,25.093647 24.198149,28.845865 26.145898,31.5267115 C27.0802959,32.8127999 28.4545633,33.6524379 29.990385,33.9144502 C31.0792231,34.1002067 31.8113153,35.1334697 31.6255588,36.2223078 C31.4398023,37.3111458 30.4065392,38.043238 29.3177012,37.8574815 C26.762476,37.4215584 24.4643545,36.0174718 22.9098301,33.8778525 C19.6635817,29.409775 20.65407,23.1560784 25.1221475,19.9098301 C29.590225,16.6635817 35.8439216,17.65407 39.0901699,22.1221475 C41.93282,26.0347197 41.5267313,31.3165086 38.3816465,34.749125 L44.4350484,43.0809179 C45.0842981,43.9745333 44.8862004,45.2252727 43.9925849,45.8745223 C43.0989694,46.523772 41.8482301,46.3256744 41.1989804,45.4320589 L34.1706037,35.7583282 Z" id="Combined-Shape"></path>
                </g>
            </g>
            <g id="Group-13-Copy" transform="translate(838.000000, 1650.000000)">
                <g id="Group-6">
                    <polyline id="Path-2" stroke="#FF307A" stroke-width="4" stroke-linecap="round" stroke-linejoin="round" points="50 56 0 56 0 0 42 0"></polyline>
                    <polyline id="Path-2" stroke="#FF307A" stroke-width="4" stroke-linecap="round" stroke-linejoin="round" points="50 0 72.5099983 0 72.5099983 56"></polyline>
                    <circle id="Oval-6" fill="#FF307A" cx="8" cy="8" r="2"></circle>
                    <circle id="Oval-6" fill="#FF307A" cx="14" cy="8" r="2"></circle>
                    <circle id="Oval-6" fill="#FF307A" cx="20" cy="8" r="2"></circle>
                </g>
                <g id="Icons-/-Navigation-/-Search-—-Default-Copy-6" transform="translate(21.000000, 12.000000)" fill="#FF307A">
                    <path d="M34.1706037,35.7583282 C34.1407722,35.7227295 34.1119621,35.6858516 34.084248,35.6477065 C33.4349984,34.754091 33.633096,33.5033516 34.5267115,32.854102 C37.207558,30.906353 37.801851,27.154135 35.854102,24.4732885 C33.906353,21.792442 30.154135,21.198149 27.4732885,23.145898 C24.792442,25.093647 24.198149,28.845865 26.145898,31.5267115 C27.0802959,32.8127999 28.4545633,33.6524379 29.990385,33.9144502 C31.0792231,34.1002067 31.8113153,35.1334697 31.6255588,36.2223078 C31.4398023,37.3111458 30.4065392,38.043238 29.3177012,37.8574815 C26.762476,37.4215584 24.4643545,36.0174718 22.9098301,33.8778525 C19.6635817,29.409775 20.65407,23.1560784 25.1221475,19.9098301 C29.590225,16.6635817 35.8439216,17.65407 39.0901699,22.1221475 C41.93282,26.0347197 41.5267313,31.3165086 38.3816465,34.749125 L44.4350484,43.0809179 C45.0842981,43.9745333 44.8862004,45.2252727 43.9925849,45.8745223 C43.0989694,46.523772 41.8482301,46.3256744 41.1989804,45.4320589 L34.1706037,35.7583282 Z" id="Combined-Shape"></path>
                </g>
            </g>
            <g id="Group-13-Copy-2" transform="translate(838.000000, 1790.000000)">
                <g id="Group-6">
                    <polyline id="Path-2" stroke="#FF307A" stroke-width="4" stroke-linecap="round" stroke-linejoin="round" points="50 56 0 56 0 0 42 0"></polyline>
                    <polyline id="Path-2" stroke="#FF307A" stroke-width="4" stroke-linecap="round" stroke-linejoin="round" points="50 0 72.5099983 0 72.5099983 56"></polyline>
                    <circle id="Oval-6" fill="#FF307A" cx="8" cy="8" r="2"></circle>
                    <circle id="Oval-6" fill="#FF307A" cx="14" cy="8" r="2"></circle>
                    <circle id="Oval-6" fill="#FF307A" cx="20" cy="8" r="2"></circle>
                </g>
                <g id="Icons-/-Navigation-/-Search-—-Default-Copy-6" transform="translate(21.000000, 12.000000)" fill="#FF307A">
                    <path d="M34.1706037,35.7583282 C34.1407722,35.7227295 34.1119621,35.6858516 34.084248,35.6477065 C33.4349984,34.754091 33.633096,33.5033516 34.5267115,32.854102 C37.207558,30.906353 37.801851,27.154135 35.854102,24.4732885 C33.906353,21.792442 30.154135,21.198149 27.4732885,23.145898 C24.792442,25.093647 24.198149,28.845865 26.145898,31.5267115 C27.0802959,32.8127999 28.4545633,33.6524379 29.990385,33.9144502 C31.0792231,34.1002067 31.8113153,35.1334697 31.6255588,36.2223078 C31.4398023,37.3111458 30.4065392,38.043238 29.3177012,37.8574815 C26.762476,37.4215584 24.4643545,36.0174718 22.9098301,33.8778525 C19.6635817,29.409775 20.65407,23.1560784 25.1221475,19.9098301 C29.590225,16.6635817 35.8439216,17.65407 39.0901699,22.1221475 C41.93282,26.0347197 41.5267313,31.3165086 38.3816465,34.749125 L44.4350484,43.0809179 C45.0842981,43.9745333 44.8862004,45.2252727 43.9925849,45.8745223 C43.0989694,46.523772 41.8482301,46.3256744 41.1989804,45.4320589 L34.1706037,35.7583282 Z" id="Combined-Shape"></path>
                </g>
            </g>
            <path d="M502.210022,1523.68994 C515.494415,1534.31846 524.003101,1550.66726 524.003101,1569.00338 C524.003101,1583.81847 524.003101,1594.92978 524.003101,1602.33732" id="Rectangle-21" stroke="#FF307A" stroke-width="4" stroke-linecap="round" stroke-linejoin="round"></path>
            <g id="Group" transform="translate(132.000000, 1515.000000)">
                <g id="Group-16" transform="translate(0.000000, 140.310059)">
                    <g id="Group-8" transform="translate(0.500000, 20.000000)">
                        <path d="M174.675429,10.0905956 C175.569044,10.7398452 175.767142,11.9905846 175.117892,12.8842001 L168.064469,22.592404 C167.415219,23.4860195 166.16448,23.6841171 165.270865,23.0348675 C164.377249,22.3856178 164.179151,21.1348785 164.828401,20.241263 L171.881824,10.5330591 C172.531074,9.63944356 173.781813,9.44134591 174.675429,10.0905956 Z" id="Path" fill="#1A2C36"></path>
                        <path d="M2.5,9.70848769 L166.144173,9.70848769 C167.248743,9.70848769 168.144173,10.6039182 168.144173,11.7084877 L168.144173,11.7084877 C168.144173,12.8130572 167.248743,13.7084877 166.144173,13.7084877 L2.5,13.7084877 C1.3954305,13.7084877 0.5,12.8130572 0.5,11.7084877 L0.5,11.7084877 C0.5,10.6039182 1.3954305,9.70848769 2.5,9.70848769 Z" id="Mask" fill="#1A2C36"></path>
                        <mask id="mask-2" fill="white">
                            <use xlink:href="#path-1"></use>
                        </mask>
                        <use id="Path" fill="#1A2C36" xlink:href="#path-1"></use>
                    </g>
                    <g id="Group-8" transform="translate(89.000000, 12.000000) scale(-1, 1) translate(-89.000000, -12.000000) translate(1.000000, 0.000000)">
                        <path d="M175.175429,10.0905956 C176.069044,10.7398452 176.267142,11.9905846 175.617892,12.8842001 L168.564469,22.592404 C167.915219,23.4860195 166.66448,23.6841171 165.770865,23.0348675 C164.877249,22.3856178 164.679151,21.1348785 165.328401,20.241263 L172.381824,10.5330591 C173.031074,9.63944356 174.281813,9.44134591 175.175429,10.0905956 Z" id="Path" fill="#1A2C36"></path>
                        <rect id="Mask" fill="#1A2C36" x="0.128786324" y="9.70996094" width="168.841215" height="4" rx="2"></rect>
                        <mask id="mask-4" fill="white">
                            <use xlink:href="#path-3"></use>
                        </mask>
                        <use id="Path" fill="#1A2C36" xlink:href="#path-3"></use>
                    </g>
                </g>
                <g id="Group-16" transform="translate(163.000000, 230.310059)">
                    <g id="Group-8" transform="translate(0.500000, 0.000000)">
                        <path d="M11.1754286,10.0905956 C12.0690441,10.7398452 12.2671418,11.9905846 11.6178921,12.8842001 L4.56446908,22.592404 C3.91521942,23.4860195 2.66448009,23.6841171 1.77086459,23.0348675 C0.877249094,22.3856178 0.679151444,21.1348785 1.32840111,20.241263 L8.38182413,10.5330591 C9.0310738,9.63944356 10.2818131,9.44134591 11.1754286,10.0905956 Z" id="Path" fill="#1A2C36"></path>
                        <mask id="mask-6" fill="white">
                            <use xlink:href="#path-5"></use>
                        </mask>
                        <use id="Path" fill="#1A2C36" xlink:href="#path-5"></use>
                    </g>
                </g>
                <g id="Group-16-Copy-3" transform="translate(1.000000, 280.310059)">
                    <g id="Group-8" transform="translate(6.000000, 12.000000) scale(-1, 1) translate(-6.000000, -12.000000) ">
                        <path d="M11.1754286,10.0905956 C12.0690441,10.7398452 12.2671418,11.9905846 11.6178921,12.8842001 L4.56446908,22.592404 C3.91521942,23.4860195 2.66448009,23.6841171 1.77086459,23.0348675 C0.877249094,22.3856178 0.679151444,21.1348785 1.32840111,20.241263 L8.38182413,10.5330591 C9.0310738,9.63944356 10.2818131,9.44134591 11.1754286,10.0905956 Z" id="Path" fill="#1A2C36"></path>
                        <mask id="mask-8" fill="white">
                            <use xlink:href="#path-7"></use>
                        </mask>
                        <use id="Path" fill="#1A2C36" xlink:href="#path-7"></use>
                    </g>
                </g>
                <g id="Group-16-Copy-2" transform="translate(1.000000, 0.310059)">
                    <g id="Group-8" transform="translate(6.000000, 12.000000) scale(-1, 1) translate(-6.000000, -12.000000) ">
                        <path d="M11.1754286,10.0905956 C12.0690441,10.7398452 12.2671418,11.9905846 11.6178921,12.8842001 L4.56446908,22.592404 C3.91521942,23.4860195 2.66448009,23.6841171 1.77086459,23.0348675 C0.877249094,22.3856178 0.679151444,21.1348785 1.32840111,20.241263 L8.38182413,10.5330591 C9.0310738,9.63944356 10.2818131,9.44134591 11.1754286,10.0905956 Z" id="Path" fill="#1A2C36"></path>
                        <mask id="mask-10" fill="white">
                            <use xlink:href="#path-9"></use>
                        </mask>
                        <use id="Path" fill="#1A2C36" xlink:href="#path-9"></use>
                    </g>
                </g>
                <g id="Group-16" transform="translate(163.000000, 90.310059)">
                    <g id="Group-8" transform="translate(0.500000, 0.000000)">
                        <path d="M11.1754286,10.0905956 C12.0690441,10.7398452 12.2671418,11.9905846 11.6178921,12.8842001 L4.56446908,22.592404 C3.91521942,23.4860195 2.66448009,23.6841171 1.77086459,23.0348675 C0.877249094,22.3856178 0.679151444,21.1348785 1.32840111,20.241263 L8.38182413,10.5330591 C9.0310738,9.63944356 10.2818131,9.44134591 11.1754286,10.0905956 Z" id="Path" fill="#1A2C36"></path>
                        <mask id="mask-12" fill="white">
                            <use xlink:href="#path-11"></use>
                        </mask>
                        <use id="Path" fill="#1A2C36" xlink:href="#path-11"></use>
                    </g>
                </g>
                <path d="M10,12 C42.4886825,12 69.6553492,23.6666667 91.5,47 C113.344651,70.3333333 140.511317,82 173,82" id="Path-4" stroke="#1A2C36" stroke-width="4" stroke-linecap="round" stroke-linejoin="round"></path>
                <path d="M10,222 C39.3839206,222 64.9982063,233.666667 86.8428571,257 C108.687508,280.333333 137.406556,292 173,292" id="Path-4-Copy" stroke="#1A2C36" stroke-width="4" stroke-linecap="round" stroke-linejoin="round" transform="translate(91.500000, 257.000000) scale(1, -1) translate(-91.500000, -257.000000) "></path>
                <path d="M3,32 C35.4886825,32 62.6553492,43.6666667 84.5,67 C106.344651,90.3333333 133.511317,102 166,102" id="Path-4" stroke="#1A2C36" stroke-width="4" stroke-linecap="round" stroke-linejoin="round"></path>
                <path d="M3,242 C38.5934444,242 67.312492,253.666667 89.1571429,277 C111.001794,300.333333 136.616079,312 166,312" id="Path-4-Copy-2" stroke="#1A2C36" stroke-width="4" stroke-linecap="round" stroke-linejoin="round" transform="translate(84.500000, 277.000000) scale(1, -1) translate(-84.500000, -277.000000) "></path>
            </g>
            <path d="M37.2636719,1440.77037 L33.3671875,1440.77037 L30.5839844,1435.4188 L27.2050781,1435.4188 L27.2050781,1440.75083 L23.8164062,1440.75083 L23.8164062,1425.24302 L31.6582031,1425.24302 C35.0175781,1425.24302 36.9804688,1427.31333 36.9804688,1430.4188 C36.9804688,1432.70396 35.9160156,1434.32505 34.0214844,1435.02818 L37.2636719,1440.77037 Z M27.2050781,1428.12388 L27.2050781,1432.53794 L31.1015625,1432.53794 C32.8789062,1432.53794 33.6113281,1431.70787 33.6113281,1430.33091 C33.6113281,1428.9149 32.8398438,1428.12388 31.1015625,1428.12388 L27.2050781,1428.12388 Z M45.1972656,1438.41685 C46.2128906,1438.41685 47.2773438,1437.90904 47.8339844,1436.97154 L50.0117188,1438.62193 C48.5761719,1440.52623 46.8574219,1440.97544 45.1484375,1440.97544 C41.6816406,1440.97544 39.1132812,1439.05162 39.1132812,1435.07701 C39.1132812,1431.34654 41.3691406,1429.02232 44.71875,1429.02232 C47.84375,1429.02232 50.0605469,1431.11216 50.0605469,1434.59849 C50.0605469,1434.95005 50.0507812,1435.15513 49.953125,1435.78013 L42.4335938,1435.78013 C42.4726562,1437.36216 43.625,1438.41685 45.1972656,1438.41685 Z M44.6699219,1431.46373 C43.2441406,1431.46373 42.6484375,1432.34263 42.4921875,1433.36802 L46.828125,1433.36802 C46.6816406,1432.20591 45.9785156,1431.46373 44.6699219,1431.46373 Z M57.2421875,1440.98521 C55.4941406,1440.98521 53.5703125,1440.35044 52.125,1439.18833 L53.6972656,1436.93248 C54.5761719,1437.87974 55.9238281,1438.62193 57.2519531,1438.62193 C58.1503906,1438.62193 58.8828125,1438.2606 58.8828125,1437.45982 C58.8828125,1436.81529 58.375,1436.59068 57.3789062,1436.32701 L55.9628906,1435.95591 C53.9414062,1435.4188 52.7597656,1434.50083 52.7597656,1432.59654 C52.7597656,1430.18443 54.625,1429.02232 57.3300781,1429.02232 C59.4199219,1429.02232 60.8554688,1429.7938 61.9980469,1430.7313 L60.5332031,1432.74302 C59.5175781,1431.7274 58.3359375,1431.22935 57.3105469,1431.22935 C56.4609375,1431.22935 55.8945312,1431.59068 55.8945312,1432.21568 C55.8945312,1432.71373 56.2753906,1432.9481 56.96875,1433.13365 L58.8730469,1433.65123 C60.4257812,1434.08091 62.1835938,1434.8231 62.1835938,1437.26451 C62.1835938,1439.62779 60.484375,1440.98521 57.2421875,1440.98521 Z M70.2441406,1440.99498 C66.9921875,1440.99498 64.5410156,1438.93443 64.5410156,1435.03794 C64.5410156,1431.09263 66.9921875,1429.02232 70.2441406,1429.02232 C73.4960938,1429.02232 75.9277344,1431.09263 75.9277344,1435.03794 C75.9277344,1438.93443 73.4960938,1440.99498 70.2441406,1440.99498 Z M70.2636719,1438.32896 C71.6796875,1438.32896 72.7246094,1437.40123 72.7246094,1435.03794 C72.7246094,1432.62583 71.6796875,1431.67857 70.2636719,1431.67857 C68.8476562,1431.67857 67.7929688,1432.61607 67.7929688,1435.03794 C67.7929688,1437.41099 68.8476562,1438.32896 70.2636719,1438.32896 Z M89.5839844,1429.24693 L89.5839844,1440.75083 L86.3417969,1440.75083 L86.3417969,1439.38365 L86.2246094,1439.38365 C85.5898438,1440.24302 84.3886719,1440.97544 82.6894531,1440.97544 C80.3457031,1440.97544 78.7734375,1439.41294 78.7734375,1436.77623 L78.7734375,1429.24693 L82.0351562,1429.24693 L82.0351562,1435.97544 C82.0351562,1437.64537 82.7871094,1438.29966 83.9980469,1438.29966 C85.3261719,1438.29966 86.2929688,1437.48912 86.2929688,1435.45787 L86.2929688,1429.24693 L89.5839844,1429.24693 Z M93.5136719,1440.75083 L93.5136719,1429.24693 L96.6972656,1429.24693 L96.6972656,1431.31724 L96.7558594,1431.31724 C97.3808594,1429.66685 98.6601562,1429.02232 100.574219,1429.02232 L100.574219,1431.87388 C97.6738281,1432.11802 96.8046875,1433.43638 96.8046875,1436.45396 L96.8046875,1440.75083 L93.5136719,1440.75083 Z M107.921875,1441.05357 C104.669922,1441.05357 102.21875,1438.97349 102.21875,1435.03794 C102.21875,1431.09263 104.669922,1429.02232 107.921875,1429.02232 C110.509766,1429.02232 112.560547,1430.31138 113.195312,1432.81138 L110.294922,1433.80748 C109.992188,1432.28404 109.083984,1431.67857 107.941406,1431.67857 C106.525391,1431.67857 105.470703,1432.61607 105.470703,1435.03794 C105.470703,1437.45982 106.525391,1438.38755 107.941406,1438.38755 C109.083984,1438.38755 109.992188,1437.78208 110.294922,1436.26841 L113.195312,1437.26451 C112.560547,1439.76451 110.509766,1441.05357 107.921875,1441.05357 Z M121.324219,1438.41685 C122.339844,1438.41685 123.404297,1437.90904 123.960938,1436.97154 L126.138672,1438.62193 C124.703125,1440.52623 122.984375,1440.97544 121.275391,1440.97544 C117.808594,1440.97544 115.240234,1439.05162 115.240234,1435.07701 C115.240234,1431.34654 117.496094,1429.02232 120.845703,1429.02232 C123.970703,1429.02232 126.1875,1431.11216 126.1875,1434.59849 C126.1875,1434.95005 126.177734,1435.15513 126.080078,1435.78013 L118.560547,1435.78013 C118.599609,1437.36216 119.751953,1438.41685 121.324219,1438.41685 Z M120.796875,1431.46373 C119.371094,1431.46373 118.775391,1432.34263 118.619141,1433.36802 L122.955078,1433.36802 C122.808594,1432.20591 122.105469,1431.46373 120.796875,1431.46373 Z M136.117188,1440.75083 L136.117188,1425.24302 L143.958984,1425.24302 C147.318359,1425.24302 149.28125,1427.31333 149.28125,1430.4188 C149.28125,1433.53404 147.298828,1435.4188 143.958984,1435.4188 L139.505859,1435.4188 L139.505859,1440.75083 L136.117188,1440.75083 Z M139.505859,1432.53794 L143.402344,1432.53794 C145.179688,1432.53794 145.912109,1431.70787 145.912109,1430.33091 C145.912109,1428.9149 145.140625,1428.12388 143.402344,1428.12388 L139.505859,1428.12388 L139.505859,1432.53794 Z M152.361328,1440.75083 L152.361328,1429.24693 L155.544922,1429.24693 L155.544922,1431.31724 L155.603516,1431.31724 C156.228516,1429.66685 157.507812,1429.02232 159.421875,1429.02232 L159.421875,1431.87388 C156.521484,1432.11802 155.652344,1433.43638 155.652344,1436.45396 L155.652344,1440.75083 L152.361328,1440.75083 Z M166.769531,1440.99498 C163.517578,1440.99498 161.066406,1438.93443 161.066406,1435.03794 C161.066406,1431.09263 163.517578,1429.02232 166.769531,1429.02232 C170.021484,1429.02232 172.453125,1431.09263 172.453125,1435.03794 C172.453125,1438.93443 170.021484,1440.99498 166.769531,1440.99498 Z M166.789062,1438.32896 C168.205078,1438.32896 169.25,1437.40123 169.25,1435.03794 C169.25,1432.62583 168.205078,1431.67857 166.789062,1431.67857 C165.373047,1431.67857 164.318359,1432.61607 164.318359,1435.03794 C164.318359,1437.41099 165.373047,1438.32896 166.789062,1438.32896 Z M182.984375,1429.24693 L186.519531,1429.24693 L182.271484,1440.75083 L178.365234,1440.75083 L174.107422,1429.24693 L177.662109,1429.24693 L180.328125,1437.99693 L182.984375,1429.24693 Z M189.013672,1427.64537 L189.013672,1425.24302 L192.304688,1425.24302 L192.304688,1427.64537 L189.013672,1427.64537 Z M189.013672,1440.75083 L189.013672,1429.24693 L192.304688,1429.24693 L192.304688,1440.75083 L189.013672,1440.75083 Z M200.179688,1440.99498 C197.25,1440.99498 195.462891,1438.5731 195.462891,1434.99888 C195.462891,1431.44419 197.220703,1429.02232 200.121094,1429.02232 C201.810547,1429.02232 202.777344,1429.65708 203.421875,1430.4481 L203.480469,1430.4481 L203.480469,1425.24302 L206.78125,1425.24302 L206.78125,1440.75083 L203.558594,1440.75083 L203.558594,1439.54966 L203.490234,1439.54966 C202.943359,1440.26255 201.966797,1440.99498 200.179688,1440.99498 Z M201.283203,1438.33873 C202.71875,1438.33873 203.685547,1437.11802 203.685547,1434.96958 C203.685547,1432.9481 202.71875,1431.6981 201.283203,1431.6981 C199.701172,1431.6981 198.792969,1432.79185 198.792969,1434.96958 C198.792969,1437.26451 199.701172,1438.33873 201.283203,1438.33873 Z M215.955078,1438.41685 C216.970703,1438.41685 218.035156,1437.90904 218.591797,1436.97154 L220.769531,1438.62193 C219.333984,1440.52623 217.615234,1440.97544 215.90625,1440.97544 C212.439453,1440.97544 209.871094,1439.05162 209.871094,1435.07701 C209.871094,1431.34654 212.126953,1429.02232 215.476562,1429.02232 C218.601562,1429.02232 220.818359,1431.11216 220.818359,1434.59849 C220.818359,1434.95005 220.808594,1435.15513 220.710938,1435.78013 L213.191406,1435.78013 C213.230469,1437.36216 214.382812,1438.41685 215.955078,1438.41685 Z M215.427734,1431.46373 C214.001953,1431.46373 213.40625,1432.34263 213.25,1433.36802 L217.585938,1433.36802 C217.439453,1432.20591 216.736328,1431.46373 215.427734,1431.46373 Z M223.986328,1440.75083 L223.986328,1429.24693 L227.169922,1429.24693 L227.169922,1431.31724 L227.228516,1431.31724 C227.853516,1429.66685 229.132812,1429.02232 231.046875,1429.02232 L231.046875,1431.87388 C228.146484,1432.11802 227.277344,1433.43638 227.277344,1436.45396 L227.277344,1440.75083 L223.986328,1440.75083 Z M237.457031,1440.98521 C235.708984,1440.98521 233.785156,1440.35044 232.339844,1439.18833 L233.912109,1436.93248 C234.791016,1437.87974 236.138672,1438.62193 237.466797,1438.62193 C238.365234,1438.62193 239.097656,1438.2606 239.097656,1437.45982 C239.097656,1436.81529 238.589844,1436.59068 237.59375,1436.32701 L236.177734,1435.95591 C234.15625,1435.4188 232.974609,1434.50083 232.974609,1432.59654 C232.974609,1430.18443 234.839844,1429.02232 237.544922,1429.02232 C239.634766,1429.02232 241.070312,1429.7938 242.212891,1430.7313 L240.748047,1432.74302 C239.732422,1431.7274 238.550781,1431.22935 237.525391,1431.22935 C236.675781,1431.22935 236.109375,1431.59068 236.109375,1432.21568 C236.109375,1432.71373 236.490234,1432.9481 237.183594,1433.13365 L239.087891,1433.65123 C240.640625,1434.08091 242.398438,1434.8231 242.398438,1437.26451 C242.398438,1439.62779 240.699219,1440.98521 237.457031,1440.98521 Z" id="Resource-Providers" fill="#1A2C36"></path>
            <path d="M760.111328,1440.77037 L756.214844,1440.77037 L753.431641,1435.4188 L750.052734,1435.4188 L750.052734,1440.75083 L746.664062,1440.75083 L746.664062,1425.24302 L754.505859,1425.24302 C757.865234,1425.24302 759.828125,1427.31333 759.828125,1430.4188 C759.828125,1432.70396 758.763672,1434.32505 756.869141,1435.02818 L760.111328,1440.77037 Z M750.052734,1428.12388 L750.052734,1432.53794 L753.949219,1432.53794 C755.726562,1432.53794 756.458984,1431.70787 756.458984,1430.33091 C756.458984,1428.9149 755.6875,1428.12388 753.949219,1428.12388 L750.052734,1428.12388 Z M768.044922,1438.41685 C769.060547,1438.41685 770.125,1437.90904 770.681641,1436.97154 L772.859375,1438.62193 C771.423828,1440.52623 769.705078,1440.97544 767.996094,1440.97544 C764.529297,1440.97544 761.960938,1439.05162 761.960938,1435.07701 C761.960938,1431.34654 764.216797,1429.02232 767.566406,1429.02232 C770.691406,1429.02232 772.908203,1431.11216 772.908203,1434.59849 C772.908203,1434.95005 772.898438,1435.15513 772.800781,1435.78013 L765.28125,1435.78013 C765.320312,1437.36216 766.472656,1438.41685 768.044922,1438.41685 Z M767.517578,1431.46373 C766.091797,1431.46373 765.496094,1432.34263 765.339844,1433.36802 L769.675781,1433.36802 C769.529297,1432.20591 768.826172,1431.46373 767.517578,1431.46373 Z M780.089844,1440.98521 C778.341797,1440.98521 776.417969,1440.35044 774.972656,1439.18833 L776.544922,1436.93248 C777.423828,1437.87974 778.771484,1438.62193 780.099609,1438.62193 C780.998047,1438.62193 781.730469,1438.2606 781.730469,1437.45982 C781.730469,1436.81529 781.222656,1436.59068 780.226562,1436.32701 L778.810547,1435.95591 C776.789062,1435.4188 775.607422,1434.50083 775.607422,1432.59654 C775.607422,1430.18443 777.472656,1429.02232 780.177734,1429.02232 C782.267578,1429.02232 783.703125,1429.7938 784.845703,1430.7313 L783.380859,1432.74302 C782.365234,1431.7274 781.183594,1431.22935 780.158203,1431.22935 C779.308594,1431.22935 778.742188,1431.59068 778.742188,1432.21568 C778.742188,1432.71373 779.123047,1432.9481 779.816406,1433.13365 L781.720703,1433.65123 C783.273438,1434.08091 785.03125,1434.8231 785.03125,1437.26451 C785.03125,1439.62779 783.332031,1440.98521 780.089844,1440.98521 Z M793.472656,1438.41685 C794.488281,1438.41685 795.552734,1437.90904 796.109375,1436.97154 L798.287109,1438.62193 C796.851562,1440.52623 795.132812,1440.97544 793.423828,1440.97544 C789.957031,1440.97544 787.388672,1439.05162 787.388672,1435.07701 C787.388672,1431.34654 789.644531,1429.02232 792.994141,1429.02232 C796.119141,1429.02232 798.335938,1431.11216 798.335938,1434.59849 C798.335938,1434.95005 798.326172,1435.15513 798.228516,1435.78013 L790.708984,1435.78013 C790.748047,1437.36216 791.900391,1438.41685 793.472656,1438.41685 Z M792.945312,1431.46373 C791.519531,1431.46373 790.923828,1432.34263 790.767578,1433.36802 L795.103516,1433.36802 C794.957031,1432.20591 794.253906,1431.46373 792.945312,1431.46373 Z M806.054688,1429.02232 C808.886719,1429.02232 810.703125,1430.35044 810.703125,1432.98716 L810.703125,1440.75083 L807.802734,1440.75083 L807.802734,1439.55943 C806.425781,1440.67271 805.234375,1440.99498 804.160156,1440.99498 C801.992188,1440.99498 800.595703,1439.80357 800.595703,1437.77232 C800.595703,1435.54576 802.324219,1434.46177 804.648438,1433.80748 L807.802734,1432.90904 C807.753906,1431.9813 807.070312,1431.48326 805.957031,1431.48326 C804.648438,1431.48326 803.173828,1432.14732 802.216797,1433.04576 L800.810547,1430.86802 C802.402344,1429.57896 804.248047,1429.02232 806.054688,1429.02232 Z M805.117188,1438.67076 C806.025391,1438.67076 806.923828,1438.16294 807.802734,1437.41099 L807.802734,1435.26255 L805.429688,1436.02427 C804.365234,1436.36607 803.847656,1436.74693 803.847656,1437.51841 C803.847656,1438.2313 804.316406,1438.67076 805.117188,1438.67076 Z M814.388672,1440.75083 L814.388672,1429.24693 L817.572266,1429.24693 L817.572266,1431.31724 L817.630859,1431.31724 C818.255859,1429.66685 819.535156,1429.02232 821.449219,1429.02232 L821.449219,1431.87388 C818.548828,1432.11802 817.679688,1433.43638 817.679688,1436.45396 L817.679688,1440.75083 L814.388672,1440.75083 Z M828.796875,1441.05357 C825.544922,1441.05357 823.09375,1438.97349 823.09375,1435.03794 C823.09375,1431.09263 825.544922,1429.02232 828.796875,1429.02232 C831.384766,1429.02232 833.435547,1430.31138 834.070312,1432.81138 L831.169922,1433.80748 C830.867188,1432.28404 829.958984,1431.67857 828.816406,1431.67857 C827.400391,1431.67857 826.345703,1432.61607 826.345703,1435.03794 C826.345703,1437.45982 827.400391,1438.38755 828.816406,1438.38755 C829.958984,1438.38755 830.867188,1437.78208 831.169922,1436.26841 L834.070312,1437.26451 C833.435547,1439.76451 831.384766,1441.05357 828.796875,1441.05357 Z M836.955078,1440.75083 L836.955078,1425.24302 L840.197266,1425.24302 L840.197266,1430.61412 L840.324219,1430.61412 C840.988281,1429.77427 842.169922,1429.02232 843.820312,1429.02232 C846.212891,1429.02232 847.765625,1430.65318 847.765625,1433.2899 L847.765625,1440.75083 L844.513672,1440.75083 L844.513672,1434.02232 C844.513672,1432.3524 843.751953,1431.6981 842.560547,1431.6981 C841.212891,1431.6981 840.255859,1432.50865 840.255859,1434.5399 L840.255859,1440.75083 L836.955078,1440.75083 Z M861.240234,1440.75083 L861.240234,1428.11412 L856.611328,1428.11412 L856.611328,1425.24302 L869.287109,1425.24302 L869.287109,1428.11412 L864.638672,1428.11412 L864.638672,1440.75083 L861.240234,1440.75083 Z M874.769531,1440.99498 C871.517578,1440.99498 869.066406,1438.93443 869.066406,1435.03794 C869.066406,1431.09263 871.517578,1429.02232 874.769531,1429.02232 C878.021484,1429.02232 880.453125,1431.09263 880.453125,1435.03794 C880.453125,1438.93443 878.021484,1440.99498 874.769531,1440.99498 Z M874.789062,1438.32896 C876.205078,1438.32896 877.25,1437.40123 877.25,1435.03794 C877.25,1432.62583 876.205078,1431.67857 874.789062,1431.67857 C873.373047,1431.67857 872.318359,1432.61607 872.318359,1435.03794 C872.318359,1437.41099 873.373047,1438.32896 874.789062,1438.32896 Z M888.416016,1440.99498 C885.164062,1440.99498 882.712891,1438.93443 882.712891,1435.03794 C882.712891,1431.09263 885.164062,1429.02232 888.416016,1429.02232 C891.667969,1429.02232 894.099609,1431.09263 894.099609,1435.03794 C894.099609,1438.93443 891.667969,1440.99498 888.416016,1440.99498 Z M888.435547,1438.32896 C889.851562,1438.32896 890.896484,1437.40123 890.896484,1435.03794 C890.896484,1432.62583 889.851562,1431.67857 888.435547,1431.67857 C887.019531,1431.67857 885.964844,1432.61607 885.964844,1435.03794 C885.964844,1437.41099 887.019531,1438.32896 888.435547,1438.32896 Z M897.199219,1440.75083 L897.199219,1425.24302 L900.5,1425.24302 L900.5,1440.75083 L897.199219,1440.75083 Z M908.443359,1440.98521 C906.695312,1440.98521 904.771484,1440.35044 903.326172,1439.18833 L904.898438,1436.93248 C905.777344,1437.87974 907.125,1438.62193 908.453125,1438.62193 C909.351562,1438.62193 910.083984,1438.2606 910.083984,1437.45982 C910.083984,1436.81529 909.576172,1436.59068 908.580078,1436.32701 L907.164062,1435.95591 C905.142578,1435.4188 903.960938,1434.50083 903.960938,1432.59654 C903.960938,1430.18443 905.826172,1429.02232 908.53125,1429.02232 C910.621094,1429.02232 912.056641,1429.7938 913.199219,1430.7313 L911.734375,1432.74302 C910.71875,1431.7274 909.537109,1431.22935 908.511719,1431.22935 C907.662109,1431.22935 907.095703,1431.59068 907.095703,1432.21568 C907.095703,1432.71373 907.476562,1432.9481 908.169922,1433.13365 L910.074219,1433.65123 C911.626953,1434.08091 913.384766,1434.8231 913.384766,1437.26451 C913.384766,1439.62779 911.685547,1440.98521 908.443359,1440.98521 Z" id="Research-Tools" fill="#1A2C36"></path>
            <path d="M372.649414,1440.77037 L368.75293,1440.77037 L365.969727,1435.4188 L362.59082,1435.4188 L362.59082,1440.75083 L359.202148,1440.75083 L359.202148,1425.24302 L367.043945,1425.24302 C370.40332,1425.24302 372.366211,1427.31333 372.366211,1430.4188 C372.366211,1432.70396 371.301758,1434.32505 369.407227,1435.02818 L372.649414,1440.77037 Z M362.59082,1428.12388 L362.59082,1432.53794 L366.487305,1432.53794 C368.264648,1432.53794 368.99707,1431.70787 368.99707,1430.33091 C368.99707,1428.9149 368.225586,1428.12388 366.487305,1428.12388 L362.59082,1428.12388 Z M376.227539,1440.75083 L376.227539,1425.24302 L379.625977,1425.24302 L379.625977,1440.75083 L376.227539,1440.75083 Z M389.50293,1441.08287 C386.807617,1441.08287 384.50293,1440.02818 383.116211,1438.30943 L385.108398,1435.96568 C386.456055,1437.48912 387.94043,1438.18248 389.65918,1438.18248 C391.124023,1438.18248 392.188477,1437.68443 392.188477,1436.25865 C392.188477,1435.25279 391.69043,1434.68638 390.186523,1434.42271 L387.725586,1433.95396 C385.342773,1433.50474 383.584961,1432.21568 383.584961,1429.54966 C383.584961,1426.3563 385.821289,1424.87193 388.956055,1424.87193 C391.143555,1424.87193 393.213867,1425.59458 394.854492,1427.05943 L393.057617,1429.41294 C392.022461,1428.31919 390.274414,1427.58677 388.838867,1427.58677 C387.676758,1427.58677 386.836914,1428.04576 386.836914,1429.14927 C386.836914,1429.99888 387.237305,1430.54576 388.858398,1430.83873 L390.889648,1431.21958 C393.477539,1431.70787 395.538086,1432.9774 395.538086,1435.87779 C395.538086,1439.13951 393.213867,1441.08287 389.50293,1441.08287 Z M399.057617,1440.75083 L399.057617,1425.24302 L410.454102,1425.24302 L410.454102,1428.12388 L402.456055,1428.12388 L402.456055,1431.54185 L409.87793,1431.54185 L409.87793,1434.42271 L402.456055,1434.42271 L402.456055,1437.86998 L410.981445,1437.86998 L410.981445,1440.75083 L399.057617,1440.75083 Z M431.858398,1440.75083 L430.725586,1437.45005 L424.348633,1437.45005 L423.21582,1440.75083 L419.543945,1440.75083 L425.266602,1425.24302 L429.807617,1425.24302 L435.530273,1440.75083 L431.858398,1440.75083 Z M425.286133,1434.72544 L429.77832,1434.72544 L427.581055,1428.33873 L427.483398,1428.33873 L425.286133,1434.72544 Z M448.385742,1429.24693 L448.385742,1440.75083 L445.143555,1440.75083 L445.143555,1439.38365 L445.026367,1439.38365 C444.391602,1440.24302 443.19043,1440.97544 441.491211,1440.97544 C439.147461,1440.97544 437.575195,1439.41294 437.575195,1436.77623 L437.575195,1429.24693 L440.836914,1429.24693 L440.836914,1435.97544 C440.836914,1437.64537 441.588867,1438.29966 442.799805,1438.29966 C444.12793,1438.29966 445.094727,1437.48912 445.094727,1435.45787 L445.094727,1429.24693 L448.385742,1429.24693 Z M455.75293,1440.75083 C453.614258,1440.75083 452.647461,1439.66685 452.647461,1437.38169 L452.647461,1431.20982 L451.094727,1431.20982 L451.094727,1429.24693 L452.647461,1429.24693 L452.647461,1425.24302 L455.928711,1425.24302 L455.928711,1429.24693 L458.331055,1429.24693 L458.331055,1431.20982 L455.928711,1431.20982 L455.928711,1436.71763 C455.928711,1437.87974 456.202148,1438.19224 457.188477,1438.19224 L458.331055,1438.19224 L458.331055,1440.75083 L455.75293,1440.75083 Z M461.450195,1440.75083 L461.450195,1425.24302 L464.692383,1425.24302 L464.692383,1430.61412 L464.819336,1430.61412 C465.483398,1429.77427 466.665039,1429.02232 468.31543,1429.02232 C470.708008,1429.02232 472.260742,1430.65318 472.260742,1433.2899 L472.260742,1440.75083 L469.008789,1440.75083 L469.008789,1434.02232 C469.008789,1432.3524 468.24707,1431.6981 467.055664,1431.6981 C465.708008,1431.6981 464.750977,1432.50865 464.750977,1434.5399 L464.750977,1440.75083 L461.450195,1440.75083 Z M480.799805,1440.99498 C477.547852,1440.99498 475.09668,1438.93443 475.09668,1435.03794 C475.09668,1431.09263 477.547852,1429.02232 480.799805,1429.02232 C484.051758,1429.02232 486.483398,1431.09263 486.483398,1435.03794 C486.483398,1438.93443 484.051758,1440.99498 480.799805,1440.99498 Z M480.819336,1438.32896 C482.235352,1438.32896 483.280273,1437.40123 483.280273,1435.03794 C483.280273,1432.62583 482.235352,1431.67857 480.819336,1431.67857 C479.40332,1431.67857 478.348633,1432.61607 478.348633,1435.03794 C478.348633,1437.41099 479.40332,1438.32896 480.819336,1438.32896 Z M489.583008,1440.75083 L489.583008,1429.24693 L492.766602,1429.24693 L492.766602,1431.31724 L492.825195,1431.31724 C493.450195,1429.66685 494.729492,1429.02232 496.643555,1429.02232 L496.643555,1431.87388 C493.743164,1432.11802 492.874023,1433.43638 492.874023,1436.45396 L492.874023,1440.75083 L489.583008,1440.75083 Z M499.28418,1427.64537 L499.28418,1425.24302 L502.575195,1425.24302 L502.575195,1427.64537 L499.28418,1427.64537 Z M499.28418,1440.75083 L499.28418,1429.24693 L502.575195,1429.24693 L502.575195,1440.75083 L499.28418,1440.75083 Z M515.469727,1429.24693 L515.469727,1431.68833 L510.020508,1438.15318 L515.44043,1438.15318 L515.44043,1440.75083 L505.762695,1440.75083 L505.762695,1438.44615 L511.495117,1431.82505 L505.821289,1431.82505 L505.821289,1429.24693 L515.469727,1429.24693 Z M523.256836,1429.02232 C526.088867,1429.02232 527.905273,1430.35044 527.905273,1432.98716 L527.905273,1440.75083 L525.004883,1440.75083 L525.004883,1439.55943 C523.62793,1440.67271 522.436523,1440.99498 521.362305,1440.99498 C519.194336,1440.99498 517.797852,1439.80357 517.797852,1437.77232 C517.797852,1435.54576 519.526367,1434.46177 521.850586,1433.80748 L525.004883,1432.90904 C524.956055,1431.9813 524.272461,1431.48326 523.15918,1431.48326 C521.850586,1431.48326 520.375977,1432.14732 519.418945,1433.04576 L518.012695,1430.86802 C519.604492,1429.57896 521.450195,1429.02232 523.256836,1429.02232 Z M522.319336,1438.67076 C523.227539,1438.67076 524.125977,1438.16294 525.004883,1437.41099 L525.004883,1435.26255 L522.631836,1436.02427 C521.567383,1436.36607 521.049805,1436.74693 521.049805,1437.51841 C521.049805,1438.2313 521.518555,1438.67076 522.319336,1438.67076 Z M535.02832,1440.75083 C532.889648,1440.75083 531.922852,1439.66685 531.922852,1437.38169 L531.922852,1431.20982 L530.370117,1431.20982 L530.370117,1429.24693 L531.922852,1429.24693 L531.922852,1425.24302 L535.204102,1425.24302 L535.204102,1429.24693 L537.606445,1429.24693 L537.606445,1431.20982 L535.204102,1431.20982 L535.204102,1436.71763 C535.204102,1437.87974 535.477539,1438.19224 536.463867,1438.19224 L537.606445,1438.19224 L537.606445,1440.75083 L535.02832,1440.75083 Z M540.725586,1427.64537 L540.725586,1425.24302 L544.016602,1425.24302 L544.016602,1427.64537 L540.725586,1427.64537 Z M540.725586,1440.75083 L540.725586,1429.24693 L544.016602,1429.24693 L544.016602,1440.75083 L540.725586,1440.75083 Z M552.80957,1440.99498 C549.557617,1440.99498 547.106445,1438.93443 547.106445,1435.03794 C547.106445,1431.09263 549.557617,1429.02232 552.80957,1429.02232 C556.061523,1429.02232 558.493164,1431.09263 558.493164,1435.03794 C558.493164,1438.93443 556.061523,1440.99498 552.80957,1440.99498 Z M552.829102,1438.32896 C554.245117,1438.32896 555.290039,1437.40123 555.290039,1435.03794 C555.290039,1432.62583 554.245117,1431.67857 552.829102,1431.67857 C551.413086,1431.67857 550.358398,1432.61607 550.358398,1435.03794 C550.358398,1437.41099 551.413086,1438.32896 552.829102,1438.32896 Z M561.592773,1440.75083 L561.592773,1429.24693 L564.834961,1429.24693 L564.834961,1430.61412 L564.952148,1430.61412 C565.586914,1429.75474 566.788086,1429.02232 568.477539,1429.02232 C570.821289,1429.02232 572.393555,1430.57505 572.393555,1433.21177 L572.393555,1440.75083 L569.141602,1440.75083 L569.141602,1434.02232 C569.141602,1432.34263 568.379883,1431.6981 567.178711,1431.6981 C565.850586,1431.6981 564.883789,1432.50865 564.883789,1434.5399 L564.883789,1440.75083 L561.592773,1440.75083 Z" id="RISE-Authorization" fill="#1A2C36"></path>
            <path d="M217.58125,1655.26562 C215.425,1655.26562 213.58125,1654.42188 212.471875,1653.04688 L214.065625,1651.17188 C215.14375,1652.39062 216.33125,1652.94531 217.70625,1652.94531 C218.878125,1652.94531 219.729688,1652.54688 219.729688,1651.40625 C219.729688,1650.60156 219.33125,1650.14844 218.128125,1649.9375 L216.159375,1649.5625 C214.253125,1649.20312 212.846875,1648.17188 212.846875,1646.03906 C212.846875,1643.48438 214.635938,1642.29688 217.14375,1642.29688 C218.89375,1642.29688 220.55,1642.875 221.8625,1644.04688 L220.425,1645.92969 C219.596875,1645.05469 218.198438,1644.46875 217.05,1644.46875 C216.120313,1644.46875 215.448438,1644.83594 215.448438,1645.71875 C215.448438,1646.39844 215.76875,1646.83594 217.065625,1647.07031 L218.690625,1647.375 C220.760938,1647.76562 222.409375,1648.78125 222.409375,1651.10156 C222.409375,1653.71094 220.55,1655.26562 217.58125,1655.26562 Z M225.225,1655 L225.225,1642.59375 L227.94375,1642.59375 L227.94375,1647.64062 L233.420313,1647.64062 L233.420313,1642.59375 L236.139063,1642.59375 L236.139063,1655 L233.420313,1655 L233.420313,1649.92969 L227.94375,1649.92969 L227.94375,1655 L225.225,1655 Z M239.876563,1655 L239.876563,1642.59375 L242.595313,1642.59375 L242.595313,1655 L239.876563,1655 Z M246.332813,1655 L246.332813,1642.59375 L249.2,1642.59375 L254.5125,1651.02344 L254.590625,1651.02344 L254.590625,1642.59375 L257.309375,1642.59375 L257.309375,1655 L254.403125,1655 L249.145313,1646.60938 L249.051563,1646.60938 L249.051563,1655 L246.332813,1655 Z M261.046875,1655 L261.046875,1642.59375 L270.164063,1642.59375 L270.164063,1644.89844 L263.765625,1644.89844 L263.765625,1647.63281 L269.703125,1647.63281 L269.703125,1649.9375 L263.765625,1649.9375 L263.765625,1652.69531 L270.585938,1652.69531 L270.585938,1655 L261.046875,1655 Z M287.2875,1655 L286.38125,1652.35938 L281.279688,1652.35938 L280.373438,1655 L277.435938,1655 L282.014063,1642.59375 L285.646875,1642.59375 L290.225,1655 L287.2875,1655 Z M282.029688,1650.17969 L285.623438,1650.17969 L283.865625,1645.07031 L283.7875,1645.07031 L282.029688,1650.17969 Z M292.720313,1655 L292.720313,1642.59375 L298.99375,1642.59375 C301.68125,1642.59375 303.251563,1644.25 303.251563,1646.73438 C303.251563,1649.22656 301.665625,1650.73438 298.99375,1650.73438 L295.43125,1650.73438 L295.43125,1655 L292.720313,1655 Z M295.43125,1648.42969 L298.548438,1648.42969 C299.970313,1648.42969 300.55625,1647.76562 300.55625,1646.66406 C300.55625,1645.53125 299.939063,1644.89844 298.548438,1644.89844 L295.43125,1644.89844 L295.43125,1648.42969 Z M306.0125,1655 L306.0125,1642.59375 L308.73125,1642.59375 L308.73125,1655 L306.0125,1655 Z" id="SHINE-API" fill="#1A2C36"></path>
            <path d="M628.132812,1655.26562 C625.976562,1655.26562 624.132812,1654.42188 623.023438,1653.04688 L624.617188,1651.17188 C625.695312,1652.39062 626.882812,1652.94531 628.257812,1652.94531 C629.429688,1652.94531 630.28125,1652.54688 630.28125,1651.40625 C630.28125,1650.60156 629.882812,1650.14844 628.679688,1649.9375 L626.710938,1649.5625 C624.804688,1649.20312 623.398438,1648.17188 623.398438,1646.03906 C623.398438,1643.48438 625.1875,1642.29688 627.695312,1642.29688 C629.445312,1642.29688 631.101562,1642.875 632.414062,1644.04688 L630.976562,1645.92969 C630.148438,1645.05469 628.75,1644.46875 627.601562,1644.46875 C626.671875,1644.46875 626,1644.83594 626,1645.71875 C626,1646.39844 626.320312,1646.83594 627.617188,1647.07031 L629.242188,1647.375 C631.3125,1647.76562 632.960938,1648.78125 632.960938,1651.10156 C632.960938,1653.71094 631.101562,1655.26562 628.132812,1655.26562 Z M635.776562,1655 L635.776562,1642.59375 L638.495312,1642.59375 L638.495312,1647.64062 L643.971875,1647.64062 L643.971875,1642.59375 L646.690625,1642.59375 L646.690625,1655 L643.971875,1655 L643.971875,1649.92969 L638.495312,1649.92969 L638.495312,1655 L635.776562,1655 Z M650.428125,1655 L650.428125,1642.59375 L653.146875,1642.59375 L653.146875,1655 L650.428125,1655 Z M656.884375,1655 L656.884375,1642.59375 L659.751562,1642.59375 L665.064062,1651.02344 L665.142187,1651.02344 L665.142187,1642.59375 L667.860937,1642.59375 L667.860937,1655 L664.954687,1655 L659.696875,1646.60938 L659.603125,1646.60938 L659.603125,1655 L656.884375,1655 Z M671.598438,1655 L671.598438,1642.59375 L680.715625,1642.59375 L680.715625,1644.89844 L674.317188,1644.89844 L674.317188,1647.63281 L680.254688,1647.63281 L680.254688,1649.9375 L674.317188,1649.9375 L674.317188,1652.69531 L681.1375,1652.69531 L681.1375,1655 L671.598438,1655 Z M697.839062,1655 L696.932812,1652.35938 L691.83125,1652.35938 L690.925,1655 L687.9875,1655 L692.565625,1642.59375 L696.198437,1642.59375 L700.776562,1655 L697.839062,1655 Z M692.58125,1650.17969 L696.175,1650.17969 L694.417187,1645.07031 L694.339062,1645.07031 L692.58125,1650.17969 Z M703.271875,1655 L703.271875,1642.59375 L709.545313,1642.59375 C712.232813,1642.59375 713.803125,1644.25 713.803125,1646.73438 C713.803125,1649.22656 712.217188,1650.73438 709.545313,1650.73438 L705.982813,1650.73438 L705.982813,1655 L703.271875,1655 Z M705.982813,1648.42969 L709.1,1648.42969 C710.521875,1648.42969 711.107813,1647.76562 711.107813,1646.66406 C711.107813,1645.53125 710.490625,1644.89844 709.1,1644.89844 L705.982813,1644.89844 L705.982813,1648.42969 Z M716.564062,1655 L716.564062,1642.59375 L719.282812,1642.59375 L719.282812,1655 L716.564062,1655 Z" id="SHINE-API-Copy" fill="#1A2C36"></path>
            <path d="M503.403614,1705.11772 L503.403614,1688.88239 C503.403614,1686.85425 505.047749,1685.21011 507.075892,1685.21011 C509.104035,1685.21011 510.74817,1686.85425 510.74817,1688.88239 L510.74817,1701.44545 L528.336448,1701.44545 C530.364591,1701.44545 532.008726,1703.08958 532.008726,1705.11772 C532.008726,1707.14587 530.364591,1708.79 528.336448,1708.79 L507.075892,1708.79 C505.047749,1708.79 503.403614,1707.14587 503.403614,1705.11772 Z M419.134501,1685.59667 C420.308689,1685.59667 421.260556,1684.6448 421.260556,1683.47061 C421.260556,1682.29642 420.308689,1681.34456 419.134501,1681.34456 L403.672278,1681.34456 C401.644135,1681.34456 400,1679.70042 400,1677.67228 C400,1675.64413 401.644135,1674 403.672278,1674 L419.134501,1674 C424.364975,1674 428.605112,1678.24014 428.605112,1683.47061 C428.605112,1687.98645 425.44448,1691.76408 421.214667,1692.71205 C421.011043,1692.75769 420.683841,1692.79676 420.475494,1692.82905 C420.682719,1692.94821 420.879117,1693.20575 421.020379,1693.3941 C422.542663,1695.42381 424.826089,1698.46838 427.870656,1702.5278 C429.087542,1704.15032 428.758715,1706.4521 427.136201,1707.66899 C425.513686,1708.88588 423.211898,1708.55705 421.995012,1706.93453 L410.420602,1691.50199 C410.175328,1691.18223 409.981472,1690.82096 409.851393,1690.43054 C409.725604,1690.04041 409.663889,1689.66188 409.663889,1689.26894 C409.663889,1689.20458 409.665545,1689.1406 409.668816,1689.07705 C409.695346,1688.57512 409.824298,1688.08031 410.050863,1687.62629 C410.278136,1687.17263 410.596611,1686.77259 410.982244,1686.4502 C411.031121,1686.40945 411.081309,1686.36974 411.1328,1686.33112 C411.45756,1686.08755 411.809535,1685.90591 412.174576,1685.78417 C412.58928,1685.65034 412.98238,1685.59243 413.373262,1685.59667 L419.134501,1685.59667 Z M479.630447,1701.05889 C481.872078,1701.05889 483.68928,1699.24169 483.68928,1697.00006 C483.68928,1694.75842 481.872078,1692.94122 479.630447,1692.94122 C477.602303,1692.94122 475.958169,1691.29709 475.958169,1689.26894 C475.958169,1687.2408 477.602303,1685.59667 479.630447,1685.59667 C485.928364,1685.59667 491.033836,1690.70214 491.033836,1697.00006 C491.033836,1703.29797 485.928364,1708.40345 479.630447,1708.40345 L464.168224,1708.40345 C462.140081,1708.40345 460.495946,1706.75931 460.495946,1704.73117 C460.495946,1702.70302 462.140081,1701.05889 464.168224,1701.05889 L479.630447,1701.05889 Z M469.966557,1674 L485.42878,1674 C487.456923,1674 489.101058,1675.64413 489.101058,1677.67228 C489.101058,1679.70042 487.456923,1681.34456 485.42878,1681.34456 L469.966557,1681.34456 C468.792369,1681.34456 467.840502,1682.29642 467.840502,1683.47061 C467.840502,1684.6448 468.792369,1685.59667 469.966557,1685.59667 C471.9947,1685.59667 473.638835,1687.2408 473.638835,1689.26894 C473.638835,1691.29709 471.9947,1692.94122 469.966557,1692.94122 C464.736083,1692.94122 460.495946,1688.70109 460.495946,1683.47061 C460.495946,1678.24014 464.736083,1674 469.966557,1674 Z M400,1688.49583 C400,1686.46769 401.644135,1684.82356 403.672278,1684.82356 C405.700421,1684.82356 407.344556,1686.46769 407.344556,1688.49583 L407.344556,1704.73117 C407.344556,1706.75931 405.700421,1708.40345 403.672278,1708.40345 C401.644135,1708.40345 400,1706.75931 400,1704.73117 L400,1688.49583 Z M441.168168,1677.67228 C441.168168,1675.64413 442.812303,1674 444.840446,1674 C446.868589,1674 448.512723,1675.64413 448.512723,1677.67228 L448.512723,1704.73117 C448.512723,1706.75931 446.868589,1708.40345 444.840446,1708.40345 C442.812303,1708.40345 441.168168,1706.75931 441.168168,1704.73117 L441.168168,1677.67228 Z M507.075892,1681.73111 C505.047749,1681.73111 503.403614,1680.08698 503.403614,1678.05883 C503.403614,1676.03069 505.047749,1674.38656 507.075892,1674.38656 L528.336448,1674.38656 C530.364591,1674.38656 532.008726,1676.03069 532.008726,1678.05883 C532.008726,1680.08698 530.364591,1681.73111 528.336448,1681.73111 L507.075892,1681.73111 Z M516.739781,1693.32778 C514.711638,1693.32778 513.067503,1691.68364 513.067503,1689.6555 C513.067503,1687.62736 514.711638,1685.98322 516.739781,1685.98322 L528.336448,1685.98322 C530.364591,1685.98322 532.008726,1687.62736 532.008726,1689.6555 C532.008726,1691.68364 530.364591,1693.32778 528.336448,1693.32778 L516.739781,1693.32778 Z" id="Mask" fill="#FF307A" fill-rule="nonzero"></path>
            <g id="Group" transform="translate(711.500000, 1671.000000) scale(-1, 1) translate(-711.500000, -1671.000000) translate(623.000000, 1515.000000)">
                <g id="Group-16" transform="translate(0.000000, 140.310059)">
                    <g id="Group-8" transform="translate(0.500000, 20.000000)">
                        <path d="M174.675429,10.0905956 C175.569044,10.7398452 175.767142,11.9905846 175.117892,12.8842001 L168.064469,22.592404 C167.415219,23.4860195 166.16448,23.6841171 165.270865,23.0348675 C164.377249,22.3856178 164.179151,21.1348785 164.828401,20.241263 L171.881824,10.5330591 C172.531074,9.63944356 173.781813,9.44134591 174.675429,10.0905956 Z" id="Path" fill="#1A2C36"></path>
                        <path d="M2.5,9.70848769 L166.144173,9.70848769 C167.248743,9.70848769 168.144173,10.6039182 168.144173,11.7084877 L168.144173,11.7084877 C168.144173,12.8130572 167.248743,13.7084877 166.144173,13.7084877 L2.5,13.7084877 C1.3954305,13.7084877 0.5,12.8130572 0.5,11.7084877 L0.5,11.7084877 C0.5,10.6039182 1.3954305,9.70848769 2.5,9.70848769 Z" id="Mask" fill="#1A2C36"></path>
                        <mask id="mask-14" fill="white">
                            <use xlink:href="#path-13"></use>
                        </mask>
                        <use id="Path" fill="#1A2C36" xlink:href="#path-13"></use>
                    </g>
                    <g id="Group-8" transform="translate(89.000000, 12.000000) scale(-1, 1) translate(-89.000000, -12.000000) translate(1.000000, 0.000000)">
                        <path d="M175.175429,10.0905956 C176.069044,10.7398452 176.267142,11.9905846 175.617892,12.8842001 L168.564469,22.592404 C167.915219,23.4860195 166.66448,23.6841171 165.770865,23.0348675 C164.877249,22.3856178 164.679151,21.1348785 165.328401,20.241263 L172.381824,10.5330591 C173.031074,9.63944356 174.281813,9.44134591 175.175429,10.0905956 Z" id="Path" fill="#1A2C36"></path>
                        <rect id="Mask" fill="#1A2C36" x="0.128786324" y="9.70996094" width="168.841215" height="4" rx="2"></rect>
                        <mask id="mask-16" fill="white">
                            <use xlink:href="#path-15"></use>
                        </mask>
                        <use id="Path" fill="#1A2C36" xlink:href="#path-15"></use>
                    </g>
                </g>
                <g id="Group-16" transform="translate(163.000000, 230.310059)">
                    <g id="Group-8" transform="translate(0.500000, 0.000000)">
                        <path d="M11.1754286,10.0905956 C12.0690441,10.7398452 12.2671418,11.9905846 11.6178921,12.8842001 L4.56446908,22.592404 C3.91521942,23.4860195 2.66448009,23.6841171 1.77086459,23.0348675 C0.877249094,22.3856178 0.679151444,21.1348785 1.32840111,20.241263 L8.38182413,10.5330591 C9.0310738,9.63944356 10.2818131,9.44134591 11.1754286,10.0905956 Z" id="Path" fill="#1A2C36"></path>
                        <mask id="mask-18" fill="white">
                            <use xlink:href="#path-17"></use>
                        </mask>
                        <use id="Path" fill="#1A2C36" xlink:href="#path-17"></use>
                    </g>
                </g>
                <g id="Group-16-Copy-3" transform="translate(1.000000, 280.310059)">
                    <g id="Group-8" transform="translate(6.000000, 12.000000) scale(-1, 1) translate(-6.000000, -12.000000) ">
                        <path d="M11.1754286,10.0905956 C12.0690441,10.7398452 12.2671418,11.9905846 11.6178921,12.8842001 L4.56446908,22.592404 C3.91521942,23.4860195 2.66448009,23.6841171 1.77086459,23.0348675 C0.877249094,22.3856178 0.679151444,21.1348785 1.32840111,20.241263 L8.38182413,10.5330591 C9.0310738,9.63944356 10.2818131,9.44134591 11.1754286,10.0905956 Z" id="Path" fill="#1A2C36"></path>
                        <mask id="mask-20" fill="white">
                            <use xlink:href="#path-19"></use>
                        </mask>
                        <use id="Path" fill="#1A2C36" xlink:href="#path-19"></use>
                    </g>
                </g>
                <g id="Group-16-Copy-2" transform="translate(1.000000, 0.310059)">
                    <g id="Group-8" transform="translate(6.000000, 12.000000) scale(-1, 1) translate(-6.000000, -12.000000) ">
                        <path d="M11.1754286,10.0905956 C12.0690441,10.7398452 12.2671418,11.9905846 11.6178921,12.8842001 L4.56446908,22.592404 C3.91521942,23.4860195 2.66448009,23.6841171 1.77086459,23.0348675 C0.877249094,22.3856178 0.679151444,21.1348785 1.32840111,20.241263 L8.38182413,10.5330591 C9.0310738,9.63944356 10.2818131,9.44134591 11.1754286,10.0905956 Z" id="Path" fill="#1A2C36"></path>
                        <mask id="mask-22" fill="white">
                            <use xlink:href="#path-21"></use>
                        </mask>
                        <use id="Path" fill="#1A2C36" xlink:href="#path-21"></use>
                    </g>
                </g>
                <g id="Group-16" transform="translate(163.000000, 90.310059)">
                    <g id="Group-8" transform="translate(0.500000, 0.000000)">
                        <path d="M11.1754286,10.0905956 C12.0690441,10.7398452 12.2671418,11.9905846 11.6178921,12.8842001 L4.56446908,22.592404 C3.91521942,23.4860195 2.66448009,23.6841171 1.77086459,23.0348675 C0.877249094,22.3856178 0.679151444,21.1348785 1.32840111,20.241263 L8.38182413,10.5330591 C9.0310738,9.63944356 10.2818131,9.44134591 11.1754286,10.0905956 Z" id="Path" fill="#1A2C36"></path>
                        <mask id="mask-24" fill="white">
                            <use xlink:href="#path-23"></use>
                        </mask>
                        <use id="Path" fill="#1A2C36" xlink:href="#path-23"></use>
                    </g>
                </g>
                <path d="M10,12 C42.4886825,12 69.6553492,23.6666667 91.5,47 C113.344651,70.3333333 140.511317,82 173,82" id="Path-4" stroke="#1A2C36" stroke-width="4" stroke-linecap="round" stroke-linejoin="round"></path>
                <path d="M10,222 C39.3839206,222 64.9982063,233.666667 86.8428571,257 C108.687508,280.333333 137.406556,292 173,292" id="Path-4-Copy" stroke="#1A2C36" stroke-width="4" stroke-linecap="round" stroke-linejoin="round" transform="translate(91.500000, 257.000000) scale(1, -1) translate(-91.500000, -257.000000) "></path>
                <path d="M3,32 C35.4886825,32 62.6553492,43.6666667 84.5,67 C106.344651,90.3333333 133.511317,102 166,102" id="Path-4" stroke="#1A2C36" stroke-width="4" stroke-linecap="round" stroke-linejoin="round"></path>
                <path d="M3,242 C38.5934444,242 67.312492,253.666667 89.1571429,277 C111.001794,300.333333 136.616079,312 166,312" id="Path-4-Copy-2" stroke="#1A2C36" stroke-width="4" stroke-linecap="round" stroke-linejoin="round" transform="translate(84.500000, 277.000000) scale(1, -1) translate(-84.500000, -277.000000) "></path>
            </g>
        </g>
    </g>
</svg>