<svg style="position: absolute; width: 0; height: 0; overflow: hidden;" xmlns="http://www.w3.org/2000/svg">
  <symbol id="rise-logo" viewbox="0 0 684 178">
    <path style="fill:#ff4e7b;" d="M535.355796,159 L535.355796,75 C535.355796,64.5065898 543.862385,56 554.355796,56 C564.849206,56 573.355796,64.5065898 573.355796,75 L573.355796,140 L664.355796,140 C674.849206,140 683.355796,148.50659 683.355796,159 C683.355796,169.49341 674.849206,178 664.355796,178 L554.355796,178 C543.862385,178 535.355796,169.49341 535.355796,159 Z M99.3557956,60 C105.430928,60 110.355796,55.0751322 110.355796,49 C110.355796,42.9248678 105.430928,38 99.3557956,38 L19.3557956,38 C8.86238533,38 0.355795579,29.4934102 0.355795579,19 C0.355795579,8.50658975 8.86238533,0 19.3557956,0 L99.3557956,0 C126.417748,0 148.355796,21.9380473 148.355796,49 C148.355796,72.3644807 132.003001,91.9095617 110.118371,96.814285 C109.064839,97.0503997 107.371927,97.2525856 106.293963,97.4196354 C107.366123,98.0361532 108.38227,99.3686325 109.113144,100.343131 C116.989289,110.844658 128.803506,126.596947 144.555796,147.6 C150.851842,155.994728 149.150524,167.903954 140.755796,174.2 C132.361067,180.496046 120.451842,178.794728 114.155796,170.4 L54.27095,90.5535393 C53.0019302,88.8991381 51.9989394,87.0299624 51.3259228,85.0099575 C50.6751041,82.9914848 50.3557956,81.0330316 50.3557956,79 C50.3557956,78.6669875 50.3643629,78.335976 50.3812891,78.0071738 C50.5185509,75.4101939 51.185735,72.850111 52.3579614,70.5010829 C53.533848,68.1538849 55.1816039,66.0840879 57.1768307,64.4160905 C57.4297167,64.2052683 57.6893856,63.9998075 57.9557956,63.8 C59.6360719,62.5397927 61.4571511,61.5999873 63.345838,60.9701273 C65.491477,60.2776972 67.5253389,59.9781022 69.5477197,60 L99.3557956,60 Z M412.355796,140 C423.953775,140 433.355796,130.59798 433.355796,119 C433.355796,107.40202 423.953775,98 412.355796,98 C401.862385,98 393.355796,89.4934102 393.355796,79 C393.355796,68.5065898 401.862385,60 412.355796,60 C444.940596,60 471.355796,86.4151998 471.355796,119 C471.355796,151.5848 444.940596,178 412.355796,178 L332.355796,178 C321.862385,178 313.355796,169.49341 313.355796,159 C313.355796,148.50659 321.862385,140 332.355796,140 L412.355796,140 Z M362.355796,0 L442.355796,0 C452.849206,0 461.355796,8.50658975 461.355796,19 C461.355796,29.4934102 452.849206,38 442.355796,38 L362.355796,38 C356.280663,38 351.355796,42.9248678 351.355796,49 C351.355796,55.0751322 356.280663,60 362.355796,60 C372.849206,60 381.355796,68.5065898 381.355796,79 C381.355796,89.4934102 372.849206,98 362.355796,98 C335.293843,98 313.355796,76.0619527 313.355796,49 C313.355796,21.9380473 335.293843,0 362.355796,0 Z M0.355795579,75 C0.355795579,64.5065898 8.86238533,56 19.3557956,56 C29.8492058,56 38.3557956,64.5065898 38.3557956,75 L38.3557956,159 C38.3557956,169.49341 29.8492058,178 19.3557956,178 C8.86238533,178 0.355795579,169.49341 0.355795579,159 L0.355795579,75 Z M213.355796,19 C213.355796,8.50658975 221.862385,0 232.355796,0 C242.849206,0 251.355796,8.50658975 251.355796,19 L251.355796,159 C251.355796,169.49341 242.849206,178 232.355796,178 C221.862385,178 213.355796,169.49341 213.355796,159 L213.355796,19 Z M554.355796,38 C543.862385,38 535.355796,29.4934102 535.355796,19 C535.355796,8.50658975 543.862385,0 554.355796,0 L664.355796,0 C674.849206,0 683.355796,8.50658975 683.355796,19 C683.355796,29.4934102 674.849206,38 664.355796,38 L554.355796,38 Z M604.355796,98 C593.862385,98 585.355796,89.4934102 585.355796,79 C585.355796,68.5065898 593.862385,60 604.355796,60 L664.355796,60 C674.849206,60 683.355796,68.5065898 683.355796,79 C683.355796,89.4934102 674.849206,98 664.355796,98 L604.355796,98 Z"></path>
</symbol>
</svg>